<?xml version="1.0" encoding="UTF-8"?>
<svg width="390px" height="66px" viewBox="0 0 390 66" version="1.1" xmlns="http://www.w3.org/2000/svg" xmlns:xlink="http://www.w3.org/1999/xlink">
    <!-- Generator: Sketch 42 (36781) - http://www.bohemiancoding.com/sketch -->
    <title>Fill 1</title>
    <desc>Created with Sketch.</desc>
    <defs>
        <path d="M300.506018,179.27576 C300.532106,177.829433 301.393011,176.666795 302.752488,176.241744 C303.816301,175.90805 305.030844,176.095573 306.082096,176.752382 C307.099529,177.386111 308.280255,178.588178 308.539203,180.062392 C308.709258,181.021161 308.466736,181.976082 307.858981,182.750213 C307.091799,183.727253 306.071467,184.246546 304.989296,184.246546 C304.593145,184.246546 304.189263,184.177307 303.787314,184.03402 C301.94086,183.382981 300.470268,181.249072 300.506018,179.27576 M361.125933,198.095314 C362.004231,196.802852 363.031327,195.582514 364.275823,194.622784 C365.392778,193.761143 367.064345,192.962009 368.649918,192.887962 C369.64223,192.841802 370.60169,193.079331 371.371771,193.763066 C372.037499,194.355445 372.439448,195.246897 372.030735,196.102769 C371.712848,196.769194 371.198817,197.351956 370.698313,197.885674 C368.808379,199.897452 366.218899,201.265885 363.476756,202.715096 C362.929873,203.003592 362.386855,203.292088 361.848669,203.583469 L361.0525,204.016213 C360.344258,204.400874 359.684327,204.759571 359.051451,205.103843 C358.988646,202.709326 359.706551,200.18691 361.125933,198.095314 M588.918993,199.397393 C588.657146,199.073315 588.398198,198.754047 588.147946,198.438624 C588.921891,197.506782 589.7026,196.450887 590.205037,195.144 C592.211883,189.912607 586.428068,187.16901 582.944831,191.21757 C581.848167,192.489837 580.511879,194.766071 581.285825,197.779892 C580.941849,198.279951 580.613333,198.778088 580.29158,199.265646 C576.767762,204.606668 571.625519,208.607146 566.211767,211.891192 C562.479245,214.155885 558.974751,215.13004 557.283859,214.376104 C556.413292,213.987596 555.815199,212.945164 555.508906,211.276695 C554.944631,208.209983 555.344648,205.042297 556.089607,202.041939 C556.275122,201.291849 558.354435,193.578429 558.937068,193.578429 L568.115228,193.578429 C569.717227,193.578429 570.597457,192.051323 571.336618,190.693469 C572.180132,189.142322 572.704791,187.808509 571.457396,187.808509 L560.762265,187.808509 C561.945889,184.005171 562.57007,182.099174 564.02327,178.014071 C564.231008,177.439964 564.48899,176.767768 564.761465,175.949401 C565.832041,172.735556 564.596241,172.32493 562.998107,172.271078 C561.246343,172.211455 559.836622,172.522069 559.29747,174.022248 C558.198873,177.081267 556.985296,180.09605 555.82776,183.132951 C555.238363,184.680251 554.707906,186.242938 554.199673,187.808509 L545.852465,187.808509 C544.251432,187.808509 542.576967,190.137633 541.846501,191.501258 C541.458079,192.224421 541.076421,193.578429 542.208835,193.578429 L552.459504,193.578429 C552.198623,194.507386 551.942574,195.436343 551.695221,196.361453 C550.622712,198.848289 549.312513,201.299543 547.643844,203.495959 C543.137376,209.595725 537.499461,215.094459 533.946656,215.128116 C532.004546,215.146388 530.063402,213.063447 529.878853,211.344011 C529.226652,205.271171 530.093355,199.292572 534.390152,195.294018 C535.562182,194.202542 535.543824,192.852381 534.450058,191.687818 C533.357259,190.524218 532.217115,190.186678 530.884692,191.074284 C527.80727,193.122605 521.466909,193.995786 517.602014,192.649472 C518.478379,188.622068 513.714895,185.974636 511.313829,189.333691 C510.703176,190.188601 510.450025,191.266614 510.580465,192.308085 C510.786271,193.933279 511.867475,193.994825 511.087733,195.653676 C509.792027,198.413621 508.662511,201.201454 507.335886,203.948897 C506.168687,206.365532 504.812109,208.763895 503.143441,210.900689 C502.29413,211.98928 501.361724,213.013441 500.337527,213.941436 C499.05728,215.103113 496.991494,216.739847 495.297703,215.288713 C493.583622,213.819306 493.296654,211.389209 493.630001,209.364928 C494.093789,206.550169 495.096729,203.795033 495.867775,201.054321 C496.550896,198.627108 497.195367,196.185471 497.653357,193.705367 C497.933562,192.190763 496.764431,191.31662 495.258088,190.966579 C493.745948,190.61269 493.024179,191.287771 492.600973,192.769678 C491.556485,196.423961 490.283002,199.813788 488.6153,203.168035 C487.404621,205.600056 484.363915,209.382238 480.884543,211.994088 C477.547206,214.500157 474.577034,215.163698 472.060021,213.972209 C469.466676,212.74514 468.888874,209.895761 468.859888,207.722425 C468.8338,205.682758 469.722725,203.254584 470.89089,200.884108 C472.431051,197.758735 476.833166,193.771721 480.160841,193.771721 C483.089466,193.771721 484.309806,196.259518 485.293422,197.878942 C486.078962,199.170442 488.342824,199.020424 489.128364,198.178978 C490.10425,197.133661 489.977675,196.079689 489.215325,194.679522 C487.437473,191.417594 483.288508,188.956723 479.883535,189.135591 C474.202139,189.434665 469.014483,193.882311 466.392152,197.938565 C465.556368,199.231027 464.856822,200.616769 464.198824,202.159261 C463.287675,204.298939 461.623838,206.373225 459.870141,207.8359 C457.31931,209.962115 450.776043,216.607139 446.923709,214.765573 C443.414384,213.087488 446.492773,205.718339 447.187488,203.14207 C448.314105,198.961764 449.280328,194.293899 445.941059,190.824254 C443.276214,188.055654 438.862503,188.056616 433.512522,190.823292 C432.974335,191.10121 432.445811,191.415671 431.928881,191.763789 C432.517312,189.52506 433.106708,187.286332 433.695138,185.046641 C435.42951,178.453546 436.882711,172.047974 438.690516,165.401989 C439.10889,163.864305 437.718494,163.213266 436.257564,162.988239 C433.878721,162.622811 433.012018,163.604659 432.454507,166.018408 C431.894097,168.451391 431.449634,170.846869 430.802264,173.261581 C428.980933,180.051814 427.231101,186.861281 425.43779,193.658246 C424.793319,196.106615 424.149813,198.554023 423.505342,201.002392 C418.536053,207.956106 410.842979,215.468542 401.239681,214.356871 C397.561267,213.928935 394.810428,211.646932 394.057739,208.403275 C392.858656,203.228619 395.64911,197.089425 400.387471,194.633362 C403.143142,193.204346 406.620581,193.393791 408.418724,195.955636 C409.334704,197.263484 411.236232,198.276105 412.546432,197.363496 C413.85953,196.450887 414.180316,194.652595 413.264336,193.34667 C410.037149,188.744198 403.66297,187.050726 398.484011,189.1529 C392.770729,191.471446 388.947382,197.520245 388.147348,203.454608 C387.840089,205.736611 383.38,209.276456 381.743217,210.624694 C376.026071,215.335834 366.04981,217.610143 360.925925,210.661237 C361.832243,210.165986 362.776244,209.652463 363.830394,209.080279 C363.830394,209.080279 364.108666,208.928338 364.626562,208.647535 C365.144458,208.366732 365.669118,208.089776 366.194743,207.811858 C370.750489,205.401955 378.516029,201.109135 377.986539,194.996867 C377.823247,193.087986 376.79905,191.411824 374.942934,190.012618 C373.209528,188.708617 371.000741,188.048923 368.533005,188.057577 C363.676764,188.107583 359.225371,190.588649 356.322835,194.866082 C353.631902,198.829055 352.65988,203.716177 353.584557,208.127281 C353.674415,208.588874 351.734238,209.736127 351.441472,209.899608 C346.365898,212.731677 338.635142,217.5034 332.801082,213.796227 C330.019324,212.031593 330.17392,208.033039 330.602923,203.742142 C330.930473,200.466751 331.543059,197.240404 332.373045,193.795762 L345.010286,193.795762 C346.611319,193.795762 347.492515,192.267695 348.23071,190.910803 C349.074224,189.359656 349.59985,188.025843 348.351488,188.025843 L333.887118,188.025843 C333.928666,187.875825 333.967315,187.731577 334.009828,187.580597 C334.594394,185.49381 334.949964,184.065755 335.236933,182.919464 C335.807005,180.636499 336.34809,178.771854 337.704668,174.824267 C338.222564,173.316395 337.040873,172.335508 335.441772,172.247998 C333.72286,172.154718 332.691899,172.030664 332.131489,173.52315 C330.577802,177.667876 330.191312,179.203636 329.610611,181.527952 C329.318812,182.698284 328.988363,184.023442 328.426021,186.030412 C328.241472,186.690107 328.056924,187.354609 327.874307,188.025843 L322.746558,188.025843 C321.145525,188.025843 319.471059,190.354967 318.740594,191.71763 C318.353138,192.441755 317.970513,193.795762 319.102928,193.795762 L325.326375,193.795762 C323.359143,196.818239 319.175394,202.487184 314.626413,207.229097 C308.290883,213.835654 304.252068,215.532972 302.596926,214.914629 C300.246104,214.041448 300.814243,209.013925 300.97367,207.205055 C301.197834,204.661482 301.692541,202.118871 302.650069,199.741664 C303.599867,197.384652 305.303319,195.436343 306.228962,193.079331 C307.286977,190.38574 306.418341,189.501981 304.853059,189.272145 C303.153471,189.021154 301.716696,189.169249 301.005556,190.577109 C296.8363,198.845404 288.033035,208.072467 285.547907,210.591036 C283.91982,212.240272 279.518671,216.256136 276.9089,215.058877 C273.245946,213.377908 275.202549,207.418542 276.178435,204.679754 C277.814252,200.089783 280.863654,197.132699 284.616468,194.020789 C286.996277,192.048438 283.534297,189.224063 281.356428,189.250989 C278.689651,189.284647 276.461539,191.866686 273.745484,192.360014 C270.870968,192.883153 270.339545,192.336934 268.978135,190.182831 C267.894032,188.469165 265.974145,187.957565 264.282288,189.387544 C262.023256,191.296426 265.925834,194.291014 263.816568,195.774845 C262.699613,196.561477 260.844463,197.567366 259.531365,197.960683 C259.039557,198.107816 254.428737,199.206985 254.428737,198.28476 C254.428737,191.790715 248.364717,183.262774 240.446513,183.964781 C243.006039,181.826064 245.03994,178.906485 246.149165,176.048452 C248.834301,169.127433 244.296914,161.827523 237.757512,159.170475 C229.712732,155.900854 220.666945,160.128282 213.609646,163.922004 C212.201858,164.678825 211.590239,165.683753 212.438583,167.832086 C213.024115,169.313032 213.241515,170.531447 216.366283,168.99761 C220.983866,166.730993 225.797593,163.86719 231.022932,163.414251 C236.681138,162.923808 243.178027,167.690723 240.741211,173.968396 C238.41551,179.964304 233.248145,182.819452 227.508776,184.580239 C226.094224,185.013945 224.57532,186.06984 225.112541,187.732539 C226.269111,191.307965 231.503145,189.162517 233.99407,188.985573 C241.412736,188.455702 248.206256,191.166602 248.206256,199.4599 C248.206256,206.874247 242.228229,212.804762 236.371947,215.306984 C230.435468,217.843825 222.586832,219.002617 215.287011,216.795623 C216.029071,210.847798 217.467778,203.097834 218.396319,197.084616 C219.338387,190.986773 220.865987,184.297513 222.753022,178.524709 C223.358845,176.671603 226.348341,171.013235 222.733698,170.93438 C221.133631,170.898798 219.546125,172.304736 218.950932,173.694324 C217.521887,177.028376 216.061922,181.359663 215.296673,184.902393 C213.34007,193.961167 210.781509,205.105766 209.774704,214.361679 C209.348599,214.106841 208.923461,213.852964 208.507018,213.568315 C207.174596,212.656668 205.396744,213.274049 204.504919,214.501118 C202.696148,216.990839 206.09629,219.040122 209.180476,220.372973 C209.07709,221.472143 209.062597,222.62228 209.79113,223.490653 C210.480047,224.311905 211.465596,224.017639 212.209588,223.466612 C212.730383,223.08195 213.212528,222.55208 213.599984,222.035672 C217.819483,223.45988 222.224498,223.511809 226.648837,223.561815 C229.952356,223.59932 235.293641,222.487649 238.446429,221.242308 C245.656391,218.392929 253.057666,210.119826 254.144667,202.907427 C254.135005,202.972819 256.493557,202.845881 256.600808,202.82761 C259.59417,202.306394 261.663821,201.803449 264.385674,200.423477 C265.123869,200.048432 265.954821,199.42528 266.62538,198.940607 C267.241831,198.4944 267.836059,197.854901 268.316272,197.257714 C268.521111,197.036534 272.664279,197.538517 275.502078,196.196049 C271.033293,201.605348 268.457341,208.719659 269.86996,214.313596 C271.253592,219.792135 275.649911,221.762562 280.764133,220.187374 C284.722752,218.967998 288.286186,216.241711 290.976153,213.158651 C291.361676,212.717252 295.04782,209.258185 295.00434,209.055276 C295.704852,212.350862 295.307734,215.873398 297.810254,218.520829 C304.368981,225.457234 314.269876,215.9561 318.819824,211.213226 C320.923293,209.020657 322.933039,206.667491 324.715722,204.432609 C324.344692,208.668692 324.239373,215.204087 329.682112,218.66123 C337.981975,223.93109 347.535996,218.489095 354.822289,214.069336 C355.234867,213.829885 355.550822,213.650055 355.843588,213.483689 C358.935504,218.092893 364.41979,220.873033 370.60169,220.873033 C371.253891,220.873033 371.91189,220.84226 372.577618,220.778791 C378.301528,220.238342 384.147182,216.942756 389.033376,211.666165 C390.886593,216.239788 395.217208,219.465173 400.566223,220.087362 C407.903726,220.944195 414.78324,217.901524 420.249168,213.198078 C420.21535,213.337518 420.180566,213.478881 420.145782,213.618321 C419.86751,214.754995 419.587305,215.898401 419.285843,217.045653 C418.64427,220.056589 420.45594,220.298926 422.483077,220.363357 C423.568147,220.397976 424.708291,219.650772 425.053233,217.903448 L425.140193,217.571677 C425.237781,217.199518 426.057139,214.082799 427.55382,208.391735 C428.415692,205.711608 429.504626,203.152648 431.133679,200.761979 C432.675772,198.50017 434.37536,196.878823 436.186063,195.943134 C437.38708,195.321906 439.422913,194.246778 440.856789,194.535274 C443.318728,195.031487 442.415308,198.588642 442.008528,200.223453 C440.961141,204.430686 439.242229,208.890833 439.752395,213.285589 C440.176568,216.939871 443.047219,220.309504 446.87733,220.726862 C450.898753,221.165376 454.350105,218.634304 457.349263,216.315758 C457.93093,215.865704 463.613292,211.887345 463.479953,211.305545 C464.313805,214.937709 466.399882,217.682267 469.569096,219.182447 C476.313338,222.376097 483.803505,218.334268 488.546698,212.769181 C487.194951,214.355909 489.074256,217.081234 490.247252,218.23041 C492.007711,219.955616 494.633908,220.213339 497.076521,220.213339 C502.625545,220.213339 505.910706,215.528164 508.341725,211.642123 C509.077987,210.46506 515.910156,197.148086 515.895662,197.142316 C518.60592,198.152052 522.745223,198.088582 525.935694,197.818358 C524.18393,201.364935 523.49308,207.016571 524.117261,211.987357 C524.753036,217.051423 529.22472,220.673971 534.32928,220.354702 C540.616499,219.962347 545.850533,214.079914 549.512521,209.550528 C549.5589,210.493909 549.641029,211.420943 549.806253,212.315281 C550.437197,215.751268 552.672073,219.054547 556.212317,220.09217 C560.606703,221.379824 565.5586,219.04493 569.229284,216.817741 C576.636356,212.325859 579.611359,209.504368 584.612533,203.274778 C586.573968,205.701991 590.49587,210.140021 586.900551,212.865346 C584.942016,214.349177 582.283934,214.576127 579.917652,214.670369 C578.396816,214.729992 576.556159,215.515663 575.668199,216.690803 C574.704874,217.964032 573.924166,219.455556 575.977391,219.936383 C576.807377,220.130637 580.163073,220.23738 581.070357,220.23738 C584.535235,220.23738 588.495787,219.217066 591.046618,216.938909 C593.59455,214.662676 594.27767,211.97774 593.905674,209.263955 C593.424494,205.750074 591.175125,202.187149 588.918993,199.397393 Z" id="path-1"></path>
    </defs>
    <g id="Page-1" stroke="none" stroke-width="1" fill="none" fill-rule="evenodd">
        <g id="Artboard-3-Copy-2" transform="translate(-204.000000, -158.000000)">
            <mask id="mask-2" fill="white">
                <use xlink:href="#path-1"></use>
            </mask>
            <use id="Fill-1" fill="#F6682F" xlink:href="#path-1"></use>
        </g>
    </g>
</svg>
