<?xml version="1.0" standalone="no"?>
<!DOCTYPE svg PUBLIC "-//W3C//DTD SVG 20010904//EN"
 "http://www.w3.org/TR/2001/REC-SVG-20010904/DTD/svg10.dtd">
<svg version="1.0" xmlns="http://www.w3.org/2000/svg"
 width="16.000000pt" height="16.000000pt" viewBox="0 0 16.000000 16.000000"
 preserveAspectRatio="xMidYMid meet">
<metadata>
Created by potrace 1.11, written by Peter Selinger 2001-2013
</metadata>
<g transform="translate(0.000000,16.000000) scale(0.008696,-0.008696)"
fill="#000000" stroke="none">
<path d="M845 1826 c-116 -25 -351 -121 -396 -162 -46 -41 -29 -117 30 -135
34 -10 43 -7 146 44 186 93 264 119 367 118 72 0 130 -25 181 -78 44 -46 76
-124 70 -173 -5 -44 -48 -130 -91 -180 -46 -55 -154 -123 -244 -155 -89 -31
-118 -55 -118 -94 0 -64 66 -85 191 -61 168 32 320 2 389 -76 52 -60 64 -98
64 -214 1 -95 -2 -110 -26 -160 -76 -154 -275 -269 -527 -306 -38 -5 -192 -5
-221 1 -132 26 -123 20 -116 68 3 23 8 67 11 97 3 30 8 73 10 95 3 22 7 63 10
90 3 28 8 64 10 80 2 17 7 52 11 80 5 39 43 233 69 351 9 41 64 220 84 276 35
96 26 141 -29 141 -39 0 -78 -29 -103 -76 -58 -113 -122 -368 -182 -727 -3
-19 -7 -46 -10 -60 -2 -14 -7 -45 -10 -70 -4 -25 -8 -56 -10 -70 -2 -14 -7
-52 -11 -84 -10 -89 -10 -91 -20 -87 -58 26 -69 28 -96 19 -33 -12 -58 -43
-58 -75 0 -27 57 -84 108 -107 34 -16 39 -22 40 -54 2 -48 33 -77 65 -61 12 7
31 20 42 30 19 17 24 17 75 3 39 -12 109 -17 240 -19 168 -3 194 -1 280 21
223 57 398 180 482 341 93 175 86 414 -16 550 -54 72 -186 145 -280 155 l-28
3 47 50 c25 28 65 88 88 134 41 82 42 88 42 180 0 84 -3 102 -27 146 -46 88
-137 164 -238 200 -60 22 -220 28 -295 11z"/>
</g>
</svg>
