<svg xmlns="http://www.w3.org/2000/svg" width="711" height="325" viewBox="0 0 711 325">
  <g fill="none" fill-rule="evenodd">
    <g stroke="#EFF2F5" stroke-dasharray="4 4" transform="translate(3 48)">
      <path d="M.398902645 168.541667L707.675689 168.541667M.398902618 112.541667L707.675689 112.541667M.323041463 55.5138889L707.623096 55.5138889M.290192398.513888876L707.843373.513888889"/>
    </g>
    <g transform="translate(0 48)">
      <g stroke="#EFF2F5">
        <g stroke-dasharray="4 4" transform="translate(1.95)">
          <path d="M.964007805 168.454519L707.675948 168.454519M.964007778 112.517899L707.675948 112.517899M.888207207 55.358079L707.623397 55.358079M.855384376.611600141L707.843498.611600156"/>
        </g>
        <path stroke-linecap="square" d="M0.34233103,0.593688165 L709.977885,0.593688189" transform="translate(.01 227.976)"/>
      </g>
      <polyline stroke="#D2D6DF" stroke-linecap="round" stroke-linejoin="round" stroke-width="6" points="8.778 127.813 62.42 189.741 116.062 136.671 169.704 127.813 223.346 9 276.988 128.775 330.63 128.775 384.272 74.502 437.914 128.775 491.556 128.775 545.198 170.371 598.84 74.502 652.481 136.671 706.123 87.112"/>
    </g>
  </g>
</svg>
