<svg width="3192" height="365" viewBox="0 0 3192 365" xmlns="http://www.w3.org/2000/svg">
  <g fill="none" fill-rule="evenodd">
    <path d="M2 10.75c0 186.985 150.397 338.567 335.92 338.567V10.75H2z" fill="#FFA71A"/>
    <path d="M90.59 239.856c61.396 67.292 149.477 109.46 247.33 109.46V10.75" fill="#F6682F"/>
    <g fill="#FFA71A">
      <path d="M685.37 261.754c-8.014 7.628-19.043 11.444-33.085 11.444H587.76v-81.594h64.525c14.042 0 25.07 3.762 33.084 11.277 8.01 7.52 12.016 17.364 12.016 29.52 0 11.942-4.007 21.726-12.017 29.354m-3.622-159.372c7.352 5.968 11.028 14.707 11.028 26.2 0 11.725-3.734 20.845-11.192 27.365-7.464 6.525-18.327 9.786-32.59 9.786H587.76V93.426h61.233c14.484 0 25.4 2.985 32.755 8.956m13.99 74.96c7.683-3.758 14.374-9.787 20.084-18.078 5.704-8.292 8.557-18.626 8.557-31.012 0-18.13-5.926-32.836-17.777-44.115-11.85-11.276-29.413-16.914-52.673-16.914H547.868c-3.15 0-5.702 2.572-5.702 5.746v14.697c0 3.174 2.553 5.747 5.703 5.747h8.944V273.21h-17.11c-3.15 0-5.704 2.572-5.704 5.746v14.698c0 3.172 2.555 5.747 5.705 5.747h116.86c15.143 0 28.198-2.986 39.174-8.954 10.97-5.972 19.26-14.04 24.855-24.215 5.597-10.167 8.395-21.445 8.395-33.83 0-12.603-3.185-23.768-9.548-33.5-6.37-9.728-14.268-16.914-23.703-21.56M855.69 128.676h-12.713c-21.297 0-36.397 9.12-45.303 24.292v-16.26c0-2.452-.708-4.404-2.118-5.857-1.417-1.45-3.316-2.174-5.704-2.174h-13.69c-2.174 0-3.967.783-5.377 2.342-1.416 1.563-2.118 3.46-2.118 5.69v158.31c0 2.234.702 4.073 2.118 5.523 1.41 1.456 3.203 2.176 5.378 2.176h14.665c2.172 0 4.02-.72 5.543-2.175 1.517-1.45 2.282-3.288 2.282-5.52v-98.737c0-12.268 3.422-21.974 10.266-29.118 6.844-7.138 16.24-10.71 28.193-10.71h18.58c2.387 0 4.236-.722 5.54-2.175 1.303-1.45 1.955-3.29 1.955-5.524v-12.383c0-2.452-.652-4.35-1.954-5.69-1.304-1.338-3.153-2.007-5.54-2.007M1901.91 128.676h-12.71c-21.296 0-36.396 9.12-45.304 24.292v-16.26c0-2.452-.706-4.404-2.118-5.857-1.415-1.45-3.316-2.174-5.703-2.174h-13.69c-2.175 0-3.966.783-5.378 2.342-1.415 1.563-2.118 3.46-2.118 5.69v158.31c0 2.234.702 4.073 2.117 5.523 1.412 1.456 3.203 2.176 5.38 2.176h14.665c2.17 0 4.02-.72 5.54-2.175 1.52-1.45 2.282-3.288 2.282-5.52v-98.737c0-12.268 3.424-21.974 10.268-29.118 6.844-7.138 16.24-10.71 28.19-10.71h18.58c2.39 0 4.238-.722 5.542-2.175 1.303-1.45 1.953-3.29 1.953-5.524v-12.383c0-2.452-.65-4.35-1.953-5.69-1.304-1.338-3.153-2.007-5.543-2.007M917.615 128.676h-14.34c-2.175 0-3.97.725-5.38 2.175-1.415 1.454-2.117 3.296-2.117 5.523V295.02c0 2.232.702 4.07 2.118 5.52 1.41 1.456 3.204 2.176 5.378 2.176h14.34c2.17 0 3.964-.72 5.38-2.175 1.41-1.45 2.117-3.288 2.117-5.52V136.372c0-2.227-.707-4.07-2.117-5.522-1.415-1.45-3.208-2.174-5.378-2.174M910.444 63c-9.9 0-17.925 8.085-17.925 18.06 0 9.975 8.025 18.062 17.924 18.062 9.9 0 17.926-8.087 17.926-18.06 0-9.977-8.026-18.062-17.926-18.062M1067.784 276.41h-20.11c-8.793 0-15.002-2.883-18.628-8.66-3.627-5.77-5.44-14.317-5.44-25.64v-86.915h40.88c2.197 0 4.01-.666 5.44-1.998 1.43-1.332 2.144-3.105 2.144-5.328v-10.656c0-2.217-.715-4.05-2.143-5.494-1.43-1.443-3.244-2.165-5.44-2.165h-40.88V73.942c0-2.215-.717-4.048-2.145-5.494-1.432-1.44-3.245-2.164-5.44-2.164h-14.506c-2.2 0-3.956.723-5.275 2.164-1.317 1.446-1.977 3.28-1.977 5.494v55.613h-26.047c-2.2 0-3.956.722-5.275 2.165-1.318 1.445-1.977 3.277-1.977 5.494v10.655c0 2.222.66 3.995 1.978 5.327 1.32 1.332 3.077 1.998 5.276 1.998h26.047v89.246c0 38.854 17.03 58.276 51.103 58.276h22.418c2.195 0 3.958-.718 5.275-2.164 1.32-1.443 1.977-3.274 1.977-5.494v-10.99c0-2.216-.658-4.047-1.978-5.496-1.318-1.44-3.08-2.163-5.276-2.163M1176.145 126.892c24.392 0 43.297 7.743 56.72 23.218 13.415 15.48 20.124 36.486 20.124 63.02v5.972c0 2.21-.72 4.034-2.158 5.472-1.448 1.44-3.277 2.154-5.49 2.154h-115.438v2.987c.665 14.376 5.1 26.648 13.307 36.816 8.202 10.174 19.073 15.258 32.603 15.258 10.42 0 18.905-2.043 25.45-6.136 6.538-4.09 11.474-8.343 14.804-12.77 1.997-2.654 3.542-4.253 4.657-4.81 1.108-.55 2.99-.83 5.655-.83h14.635c1.998 0 3.714.554 5.156 1.66 1.444 1.11 2.165 2.544 2.165 4.31 0 4.868-2.994 10.73-8.98 17.58-5.99 6.857-14.473 12.77-25.45 17.748-10.98 4.973-23.57 7.46-37.76 7.46-22.622 0-40.7-7.017-54.225-21.063-13.53-14.037-20.96-33.22-22.29-57.545l-.332-11.278.333-10.945c1.33-23.883 8.76-42.897 22.29-57.05 13.525-14.15 31.603-21.228 54.225-21.228zm46.575 77.282v-.995c0-15.476-4.215-28.08-12.64-37.812-8.433-9.73-19.744-14.595-33.935-14.595-14.42 0-25.73 4.866-33.933 14.595-8.208 9.733-12.308 22.336-12.308 37.81v.996h92.816zM1320.9 165.367c8.117-8.623 19.093-12.934 32.92-12.934 10.534 0 19.26 2.27 26.172 6.8 6.913 4.532 12.346 12.22 16.295 23.05 1.097 2.652 2.192 4.478 3.293 5.473 1.095.995 2.74 1.493 4.938 1.493h14.484c1.975 0 3.786-.775 5.432-2.323 1.647-1.545 2.356-3.317 2.14-5.307-.44-8.4-3.348-16.8-8.722-25.208-5.38-8.4-13.5-15.423-24.363-21.062-10.866-5.638-24.198-8.46-40-8.46-23.487 0-41.81 6.692-54.976 20.068-13.17 13.382-20.082 32.122-20.74 56.22l-.33 13.27.33 13.267c.658 24.104 7.57 42.843 20.74 56.218 13.167 13.385 31.49 20.067 54.977 20.067 15.802 0 29.134-2.875 40-8.623 10.862-5.747 18.98-12.82 24.362-21.228 5.374-8.4 8.282-16.696 8.723-24.877.215-1.99-.494-3.757-2.14-5.307-1.647-1.545-3.458-2.323-5.433-2.323h-14.484c-2.197 0-3.843.5-4.938 1.494-1.1.995-2.196 2.82-3.293 5.472-3.95 10.836-9.33 18.523-16.13 23.053-6.806 4.532-15.588 6.798-26.337 6.798-13.827 0-24.803-4.31-32.92-12.936-8.122-8.62-12.51-21.775-13.17-39.468l-.328-11.61.33-11.608c.658-17.69 5.046-30.847 13.167-39.47M1532.323 126.224c-12.85 0-23.65 2.164-32.397 6.493-8.754 4.33-16.34 10.606-22.762 18.815v-77.59c0-2.44-.664-4.328-1.993-5.66-1.328-1.332-3.213-1.998-5.65-1.998h-15.284c-2.215 0-4.044.666-5.482 1.998-1.443 1.332-2.16 3.22-2.16 5.66v221.114c0 2.222.717 4.052 2.16 5.494 1.438 1.448 3.267 2.166 5.482 2.166h15.284c2.214 0 4.04-.718 5.483-2.166 1.44-1.442 2.16-3.272 2.16-5.494v-92.24c0-15.762 4.207-28.14 12.63-37.132 8.416-8.99 19.71-13.486 33.89-13.486 14.62 0 25.804 4.444 33.562 13.32 7.752 8.883 11.63 21.312 11.63 37.297v92.24c0 2.223.714 4.053 2.16 5.495 1.438 1.448 3.267 2.166 5.483 2.166h15.618c2.21 0 4.036-.718 5.482-2.166 1.438-1.442 2.16-3.272 2.16-5.494v-94.24c0-22.42-5.93-40.458-17.778-54.112-11.853-13.654-28.41-20.48-49.677-20.48M1703.167 122.108c24.772 0 42.525 5.8 53.257 17.39 10.727 11.597 16.095 26.09 16.095 43.482v108.7c0 2.23-.724 4.07-2.16 5.518-1.442 1.454-3.265 2.175-5.476 2.175h-14.6c-2.214 0-3.98-.72-5.308-2.175-1.326-1.45-1.993-3.287-1.993-5.518v-14.717c-4.867 7.36-11.943 13.495-21.232 18.396-9.293 4.9-21.238 7.356-35.84 7.356-10.84 0-20.85-2.232-30.03-6.687-9.18-4.46-16.48-10.537-21.9-18.23-5.423-7.692-8.128-16.222-8.128-25.588 0-14.715 5.972-26.755 17.92-36.12 11.944-9.365 28.204-15.605 48.775-18.73l49.774-7.025v-9.698c0-22.964-13.163-34.45-39.485-34.45-10.177 0-18.366 2.062-24.555 6.187-6.198 4.127-10.73 8.978-13.606 14.548-.887 2.232-1.824 3.737-2.818 4.516-.997.785-2.382 1.172-4.15 1.172h-12.94c-1.992 0-3.707-.722-5.143-2.176-1.442-1.447-2.156-3.177-2.156-5.182 0-5.127 2.373-11.09 7.133-17.894 4.752-6.8 12.113-12.71 22.067-17.727 9.954-5.017 22.117-7.525 36.5-7.525zm39.154 100.005v-9.366l-38.823 5.687c-15.927 2.228-27.986 6.02-36.167 11.37-8.19 5.352-12.28 12.04-12.28 20.07 0 9.143 3.703 16.168 11.118 21.07 7.41 4.908 16.202 7.358 26.38 7.358 14.6 0 26.544-4.795 35.837-14.384 9.29-9.583 13.936-23.52 13.936-41.805zM2039.043 276.41h-20.11c-8.795 0-15.003-2.883-18.628-8.66-3.628-5.77-5.44-14.317-5.44-25.64v-86.915h40.88c2.195 0 4.01-.666 5.44-1.998 1.43-1.332 2.144-3.105 2.144-5.328v-10.656c0-2.217-.716-4.05-2.145-5.494-1.43-1.443-3.245-2.165-5.44-2.165h-40.88V73.942c0-2.215-.716-4.048-2.143-5.494-1.434-1.44-3.247-2.164-5.44-2.164h-14.506c-2.2 0-3.957.723-5.277 2.164-1.32 1.446-1.977 3.28-1.977 5.494v55.613h-26.048c-2.198 0-3.958.722-5.275 2.165-1.32 1.445-1.978 3.277-1.978 5.494v10.655c0 2.222.658 3.995 1.978 5.327 1.317 1.332 3.077 1.998 5.275 1.998h26.048v89.246c0 38.854 17.03 58.276 51.1 58.276h22.42c2.194 0 3.957-.718 5.275-2.164 1.32-1.443 1.978-3.274 1.978-5.494v-10.99c0-2.216-.66-4.047-1.978-5.496-1.318-1.44-3.08-2.163-5.275-2.163M2192.912 223.054c-8.727-8.245-23.578-14.6-44.56-19.063-13.477-2.895-23.638-5.738-30.48-8.53-6.85-2.784-11.49-5.794-13.916-9.03-2.434-3.228-3.644-7.19-3.644-11.872 0-7.578 2.866-13.656 8.612-18.23 5.743-4.567 14.026-6.855 24.85-6.855 7.29 0 13.362.836 18.223 2.51 4.856 1.67 8.556 3.677 11.1 6.02 2.534 2.34 5.68 5.633 9.442 9.865 1.323 2.457 3.53 3.68 6.623 3.68h12.593c1.988 0 3.695-.67 5.133-2.008 1.433-1.338 2.153-3.01 2.153-5.017 0-4.233-2.485-9.473-7.454-15.72-4.972-6.24-12.374-11.706-22.2-16.388-9.832-4.682-21.7-7.023-35.618-7.023-13.25 0-24.68 2.4-34.29 7.19-9.608 4.798-16.846 11.04-21.702 18.73-4.86 7.693-7.288 15.668-7.288 23.915 0 12.71 3.975 23.076 11.928 31.105 7.953 8.028 21.536 14.162 40.753 18.394 14.13 3.126 24.79 6.02 31.97 8.697 7.177 2.676 12.31 5.685 15.407 9.03 3.09 3.346 4.638 7.808 4.638 13.376 0 8.477-3.592 14.943-10.766 19.4-7.182 4.463-16.732 6.69-28.66 6.69-10.602 0-19.05-1.78-25.346-5.352-6.295-3.565-11.984-8.47-17.063-14.716-1.325-1.556-2.375-2.56-3.148-3.008-.775-.446-1.82-.672-3.147-.672h-13.916c-1.768 0-3.426.616-4.97 1.84-1.548 1.228-2.32 2.96-2.32 5.185 0 4.236 2.54 9.59 7.623 16.054 5.076 6.47 12.865 12.208 23.358 17.227 10.487 5.015 23.356 7.523 38.596 7.523 14.796 0 27.55-2.232 38.265-6.687 10.712-4.46 18.773-10.588 24.188-18.394 5.41-7.806 8.117-16.502 8.117-26.09 0-12.932-4.364-23.526-13.088-31.776"/>
    </g>
    <path d="M2314.247 299.085c-1.277-1.277-1.915-2.98-1.915-5.107V84.902c0-2.128.638-3.884 1.915-5.267 1.277-1.383 2.98-2.075 5.107-2.075h74.374c22.982 0 40.964 5.426 53.944 16.28 12.98 10.852 19.472 26.918 19.472 48.198 0 16.812-4.15 30.378-12.45 40.698-8.298 10.32-20.215 17.29-35.75 20.908l51.392 87.46c.638 1.278.957 2.448.957 3.512 0 1.702-.638 3.192-1.915 4.47-1.277 1.276-2.766 1.914-4.47 1.914h-3.83c-3.19 0-5.585-.692-7.18-2.075-1.597-1.383-3.246-3.564-4.95-6.543l-50.752-85.865h-65.755v87.46c0 2.13-.69 3.83-2.074 5.108-1.383 1.277-3.138 1.915-5.266 1.915h-5.746c-2.128 0-3.83-.638-5.107-1.915zm77.885-111.72c18.513 0 32.292-3.777 41.336-11.332 9.044-7.554 13.566-18.886 13.566-33.995 0-15.108-4.522-26.44-13.566-33.994-9.044-7.555-22.823-11.332-41.336-11.332h-59.69v90.653h59.69zm133.106 96.877c-12.342-13.3-19.365-31.122-21.067-53.466l-.318-12.768.32-12.768c1.7-22.13 8.67-39.9 20.906-53.306 12.236-13.407 28.57-20.11 48.998-20.11 22.13 0 39.42 7.342 51.87 22.025 12.448 14.682 18.673 34.79 18.673 60.328v4.788c0 2.128-.693 3.83-2.076 5.107-1.383 1.277-3.14 1.915-5.267 1.915h-113.635v3.192c.426 10.002 2.713 19.312 6.863 27.93 4.15 8.618 9.948 15.534 17.396 20.748 7.45 5.214 16.174 7.82 26.176 7.82 11.704 0 21.226-2.287 28.568-6.862 7.342-4.576 12.608-9.204 15.8-13.886 1.916-2.553 3.352-4.15 4.31-4.788.957-.638 2.713-.957 5.266-.957h5.108c1.915 0 3.51.532 4.788 1.596 1.276 1.065 1.915 2.448 1.915 4.15 0 4.47-2.82 9.842-8.458 16.12-5.64 6.278-13.46 11.704-23.46 16.28-10.003 4.574-21.28 6.862-33.836 6.862-20.216 0-36.496-6.65-48.838-19.95zm99.91-76.13v-1.276c0-16.386-4.63-29.898-13.886-40.538-9.256-10.64-21.652-15.96-37.186-15.96-15.535 0-27.824 5.32-36.868 15.96s-13.566 24.152-13.566 40.538v1.277h101.506zm77.884 89.696c-8.724-4.256-15.694-10.002-20.907-17.237-5.214-7.234-7.82-15.214-7.82-23.94 0-14.044 5.692-25.535 17.077-34.472 11.384-8.938 26.76-14.684 46.124-17.237l50.434-7.022v-11.172c0-11.704-3.565-20.694-10.694-26.972-7.128-6.278-18.034-9.416-32.718-9.416-10.852 0-19.737 2.128-26.653 6.384s-11.33 9.363-13.247 15.32c-.85 2.555-1.862 4.31-3.032 5.268-1.17.958-2.713 1.436-4.628 1.436h-4.47c-1.914 0-3.564-.69-4.947-2.074-1.382-1.384-2.074-3.033-2.074-4.948 0-4.682 2.128-10.16 6.384-16.44 4.256-6.276 10.853-11.756 19.79-16.438 8.938-4.68 19.898-7.022 32.878-7.022 22.77 0 38.943 5.426 48.52 16.28 9.575 10.852 14.363 24.046 14.363 39.58v106.294c0 2.128-.638 3.83-1.914 5.107-1.277 1.277-2.98 1.915-5.108 1.915h-5.426c-2.128 0-3.83-.638-5.107-1.915-1.277-1.277-1.915-2.98-1.915-5.107v-15.003c-4.682 7.023-11.545 12.98-20.59 17.875-9.043 4.895-21.013 7.342-35.91 7.342-10.213 0-19.683-2.128-28.408-6.384zm69.905-27.45c10.002-10.216 15.003-24.9 15.003-44.05v-10.854l-41.177 5.746c-17.45 2.34-30.643 6.384-39.58 12.13-8.94 5.745-13.407 12.98-13.407 21.705 0 9.79 4.096 17.343 12.29 22.663 8.192 5.32 17.714 7.98 28.567 7.98 15.535 0 28.303-5.107 38.304-15.32zm96.4 14.522c-12.13-12.874-18.515-30.91-19.153-54.104l-.32-12.768.32-12.768c.638-23.195 7.022-41.23 19.152-54.104 12.13-12.875 29.26-19.312 51.39-19.312 14.046 0 26.016 2.5 35.91 7.5 9.896 5.002 17.29 11.386 22.185 19.153 4.896 7.767 7.556 15.8 7.98 24.1.214 1.915-.424 3.564-1.914 4.947-1.49 1.384-3.192 2.075-5.107 2.075h-4.47c-2.128 0-3.67-.48-4.628-1.437-.958-.958-1.97-2.713-3.033-5.267-4.257-11.704-10.215-20.056-17.876-25.057-7.66-5.002-17.343-7.502-29.047-7.502-15.322 0-27.505 4.628-36.55 13.885-9.043 9.257-13.884 23.46-14.522 42.613l-.32 11.172.32 11.172c.638 19.152 5.48 33.356 14.523 42.613 9.044 9.257 21.227 13.885 36.55 13.885 11.703 0 21.385-2.5 29.046-7.5 7.66-5.002 13.62-13.354 17.875-25.058 1.063-2.554 2.074-4.31 3.032-5.267.957-.957 2.5-1.436 4.628-1.436h4.47c1.914 0 3.616.69 5.106 2.075 1.49 1.383 2.128 3.032 1.915 4.947-.424 8.298-3.084 16.332-7.98 24.1-4.893 7.766-12.288 14.15-22.183 19.15-9.895 5.002-21.865 7.502-35.91 7.502-22.132 0-39.262-6.437-51.39-19.312zm181.943 1.916c-6.597-9.47-9.896-22.504-9.896-39.102V153.53h-24.897c-2.128 0-3.83-.64-5.107-1.916-1.277-1.276-1.916-2.98-1.916-5.107v-4.47c0-2.127.64-3.83 1.916-5.106 1.276-1.276 2.98-1.914 5.107-1.914h24.897V81.39c0-2.128.64-3.83 1.916-5.107 1.276-1.277 2.98-1.915 5.107-1.915h5.426c2.128 0 3.83.638 5.107 1.915 1.277 1.277 1.916 2.98 1.916 5.107v53.626h39.58c2.128 0 3.83.638 5.108 1.915 1.276 1.278 1.915 2.98 1.915 5.108v4.47c0 2.127-.64 3.83-1.916 5.106-1.277 1.277-2.98 1.916-5.108 1.916h-39.58v92.887c0 11.917 1.968 20.907 5.905 26.972 3.938 6.064 10.48 9.096 19.632 9.096h17.236c2.128 0 3.83.64 5.108 1.916 1.276 1.276 1.915 2.98 1.915 5.107v4.468c0 2.128-.638 3.83-1.914 5.107-1.277 1.277-2.98 1.915-5.108 1.915h-18.832c-15.748 0-26.92-4.735-33.516-14.204z" fill="#EFF2F5"/>
  </g>
</svg>
