<?xml version="1.0" standalone="no"?>
<!DOCTYPE svg PUBLIC "-//W3C//DTD SVG 20010904//EN"
 "http://www.w3.org/TR/2001/REC-SVG-20010904/DTD/svg10.dtd">
<svg version="1.0" xmlns="http://www.w3.org/2000/svg"
 width="700.000000pt" height="700.000000pt" viewBox="0 0 700.000000 700.000000"
 preserveAspectRatio="xMidYMid meet">
<metadata>
Created by potrace 1.11, written by Peter Selinger 2001-2013
</metadata>
<g transform="translate(0.000000,700.000000) scale(0.100000,-0.100000)"
fill="#000000" stroke="none">
<path d="M195 6662 c-18 -2 -20 -9 -19 -55 1 -29 5 -133 8 -232 4 -99 8 -191
10 -205 3 -14 7 -63 11 -109 5 -77 40 -360 49 -406 2 -11 7 -40 11 -65 4 -25
9 -54 11 -65 8 -38 13 -70 20 -110 6 -39 21 -107 70 -315 68 -287 226 -759
333 -993 11 -23 38 -84 60 -135 61 -138 190 -390 269 -522 11 -19 32 -56 46
-81 80 -148 298 -467 475 -694 212 -273 554 -637 786 -840 50 -43 106 -92 125
-109 19 -17 78 -65 130 -107 478 -380 999 -689 1535 -911 503 -208 1059 -359
1580 -428 50 -6 101 -13 115 -15 65 -9 132 -15 210 -20 47 -3 101 -7 120 -10
19 -2 121 -7 227 -10 l191 -6 0 3220 c0 2995 -1 3221 -16 3222 -56 2 -6341 3
-6357 1z"/>
</g>
</svg>
