<?xml version="1.0" encoding="UTF-8"?>
<svg width="176px" height="30px" viewBox="0 0 176 30" version="1.1" xmlns="http://www.w3.org/2000/svg" xmlns:xlink="http://www.w3.org/1999/xlink">
    <!-- Generator: Sketch 42 (36781) - http://www.bohemiancoding.com/sketch -->
    <title>Page 1</title>
    <desc>Created with Sketch.</desc>
    <defs></defs>
    <g id="Page-1" stroke="none" stroke-width="1" fill="none" fill-rule="evenodd">
        <g id="Fill-1" fill="#F6682F">
            <path d="M43.3587263,9.60431579 C43.3704473,8.95141425 43.7572394,8.42657519 44.3680322,8.23469854 C44.8459874,8.08406235 45.3916638,8.16871381 45.8639755,8.46521098 C46.3210934,8.75128951 46.8515759,9.29392709 46.9679174,9.95941782 C47.0443208,10.3922256 46.9353591,10.8232968 46.6623039,11.1727554 C46.3176205,11.6138113 45.8592003,11.8482307 45.372997,11.8482307 C45.1950119,11.8482307 45.0135539,11.8169748 44.8329641,11.7522924 C44.0033798,11.4583999 43.3426643,10.4951096 43.3587263,9.60431579 M70.5943576,18.0998497 C70.9889636,17.5164058 71.4504226,16.9655201 72.0095564,16.5322783 C72.5113876,16.1433157 73.262398,15.7825702 73.9747726,15.7491437 C74.4206037,15.7283064 74.851675,15.8355316 75.1976607,16.1441839 C75.4967625,16.4115957 75.6773523,16.8140157 75.4937237,17.2003737 C75.3509015,17.5012119 75.119955,17.7642826 74.895086,18.0052137 C74.0459667,18.913372 72.8825517,19.5311106 71.6505474,20.1853145 C71.4048411,20.3155475 71.1608712,20.4457805 70.9190719,20.5773158 L70.5613652,20.7726654 C70.2431625,20.9463094 69.9466654,21.1082325 69.6623233,21.2636439 C69.6341061,20.1827098 69.9566499,19.0440391 70.5943576,18.0998497 M175.178852,23.141604 C174.962665,21.5553658 173.952057,19.946988 172.93841,18.6876347 C172.820766,18.5413397 172.704424,18.3972151 172.59199,18.254827 C172.939712,17.8341744 173.290473,17.3575215 173.51621,16.7675659 C174.417857,14.4060072 171.819274,13.1674912 170.254307,14.9950945 C169.761592,15.5694222 169.161218,16.5969607 169.50894,17.9574616 C169.354397,18.1831988 169.206799,18.4080679 169.062241,18.6281617 C167.479041,21.039209 165.168708,22.8451068 162.736389,24.3275927 C161.059422,25.3499219 159.484905,25.7896754 158.725212,25.4493331 C158.334079,25.2739526 158.065365,24.8033773 157.927752,24.0501963 C157.674232,22.6658194 157.853953,21.2358608 158.188652,19.8814374 C158.272001,19.5428316 159.206206,16.0608348 159.467974,16.0608348 L163.591586,16.0608348 C164.31134,16.0608348 164.706815,15.371468 165.038909,14.7585046 C165.417887,14.058285 165.653609,13.4561744 165.093172,13.4561744 L160.288008,13.4561744 C160.819793,11.7392691 161.100228,10.8788629 161.75313,9.03476339 C161.846463,8.77559968 161.962371,8.47215674 162.08479,8.10272908 C162.565784,6.65193325 162.010557,6.46656825 161.292539,6.44225809 C160.505497,6.41534327 159.872131,6.55556082 159.629897,7.23277251 C159.136314,8.61367662 158.591072,9.97461167 158.071008,11.3455312 C157.806201,12.0440143 157.567875,12.7494432 157.339533,13.4561744 L153.589256,13.4561744 C152.869935,13.4561744 152.117623,14.5075889 151.789435,15.123157 C151.614923,15.4496078 151.44345,16.0608348 151.952227,16.0608348 L156.5577,16.0608348 C156.440491,16.4801851 156.325452,16.8995354 156.214319,17.3171493 C155.732457,18.4397579 155.143804,19.5463044 154.394096,20.5378118 C154.386716,20.5477964 154.381941,20.5595173 154.374561,20.569936 C152.369407,23.291372 149.836374,25.7736133 148.240152,25.7888071 C147.36759,25.7970552 146.495463,24.8567728 146.412548,24.0805841 C146.119524,21.339179 146.508921,18.6403167 148.439408,16.8352871 C148.965984,16.3425722 148.957736,15.7330817 148.466323,15.2073744 C147.975344,14.6821012 147.463095,14.5297286 146.864457,14.9304121 C145.481816,15.8550666 142.633186,16.2492385 140.896746,15.6414844 C141.290484,13.8234315 139.150321,12.6283265 138.071558,14.1446729 C137.7972,14.5305968 137.683463,15.0172342 137.742068,15.4873754 C137.834533,16.2210214 138.320303,16.2488044 137.969976,16.9976443 C137.387834,18.2435401 136.88036,19.5020252 136.284326,20.7422777 C135.759921,21.8331963 135.150431,22.9158668 134.400723,23.8804593 C134.01914,24.3718719 133.600224,24.8341991 133.140067,25.2531153 C132.564871,25.7775203 131.636744,26.5163756 130.875749,25.8613035 C130.105638,25.1979834 129.976707,24.1009872 130.126475,23.1871855 C130.334848,21.9165454 130.785454,20.6728201 131.131874,19.4356064 C131.43879,18.3399126 131.728341,17.2377071 131.934109,16.1181373 C132.060001,15.4344139 131.534728,15.0398079 130.857951,14.8817918 C130.178568,14.7220393 129.854288,15.0267846 129.664148,15.6957482 C129.194875,17.3453664 128.622718,18.8756044 127.873444,20.3897803 C127.329504,21.4876446 125.96336,23.1949995 124.400129,24.3740425 C122.900713,25.5053333 121.566259,25.8048692 120.435402,25.2670069 C119.270251,24.7130824 119.010653,23.4268143 118.99763,22.4457256 C118.985909,21.5249781 119.38529,20.4288502 119.910129,19.3587689 C120.6021,17.9479112 122.579906,16.1480909 124.074981,16.1480909 C125.390768,16.1480909 125.939049,17.2711336 126.380974,18.002175 C126.733905,18.5851848 127.751025,18.5174636 128.103956,18.1376173 C128.542408,17.6657397 128.485539,17.189955 128.143026,16.5578908 C127.344264,15.0853894 125.480195,13.9745018 123.950391,14.0552463 C121.397824,14.1902545 119.067087,16.1980135 117.888912,18.0290898 C117.513407,18.6125337 117.199112,19.2380863 116.903483,19.9343988 C116.494117,20.9002937 115.746579,21.8366691 114.95867,22.4969505 C113.812619,23.4567679 110.872826,26.4564684 109.142029,25.6251477 C107.565341,24.8676256 108.948416,21.5410402 109.260541,20.3780593 C109.766713,18.4909829 110.200823,16.3838126 108.700539,14.8175435 C107.503263,13.5677407 105.520249,13.5681748 103.116581,14.8171094 C102.874782,14.9425672 102.637324,15.0845212 102.405075,15.2416691 C102.669448,14.2310608 102.934255,13.2204526 103.198628,12.2094103 C103.977856,9.23315168 104.630757,6.34154456 105.442977,3.34140991 C105.630947,2.64726792 105.006262,2.35337541 104.349888,2.25179365 C103.281109,2.08683183 102.891712,2.5300582 102.641231,3.61967446 C102.389447,4.71797292 102.189756,5.79934109 101.898902,6.88939145 C101.080605,9.95464261 100.294432,13.028576 99.4887234,16.0968659 C99.1991719,17.2021101 98.9100546,18.3069202 98.6205032,19.4121644 C96.3878752,22.5512143 92.9314909,25.9424821 88.6168709,25.4406509 C86.9642139,25.2474719 85.7283026,24.2173287 85.3901308,22.7530755 C84.8514003,20.4171292 86.1051101,17.6457706 88.2339859,16.5370535 C89.4720678,15.8919659 91.0344299,15.9774856 91.8423087,17.1339548 C92.253845,17.7243445 93.1081736,18.1814624 93.6968269,17.769492 C94.2867825,17.3575215 94.430907,16.5457357 94.0193707,15.9562142 C92.5694431,13.8785635 89.705619,13.1140956 87.378789,14.0630602 C84.8118962,15.1096996 83.0941227,17.8402519 82.7346796,20.5191451 C82.5966326,21.5492883 80.5927805,23.1472474 79.8573981,23.7558697 C77.2887688,25.8825749 72.8065824,26.9092452 70.5044968,23.7723659 C70.911692,23.5487992 71.3358176,23.3169845 71.8094316,23.058689 L72.1671383,22.8633394 C72.3998213,22.7365793 72.6355431,22.6115556 72.871699,22.4860978 C74.9185279,21.398218 78.4074705,19.4603507 78.1695782,16.7011471 C78.0962136,15.8394386 77.6360569,15.0827848 76.8021315,14.4511546 C76.023338,13.8625014 75.0309624,13.5647019 73.9222453,13.5686089 C71.7404081,13.5911826 69.7404631,14.7111866 68.4363964,16.6421081 C67.2273999,18.4310757 66.7906852,20.637223 67.2061285,22.6284859 C67.2465008,22.8368587 66.3748078,23.354752 66.2432724,23.4285507 C63.9628922,24.7070049 60.4895776,26.861059 57.8684211,25.1875647 C56.6186182,24.3909727 56.6880758,22.5859431 56.8808207,20.648944 C57.027984,19.1703651 57.3032098,17.7139259 57.6761103,16.1589436 L63.3538358,16.1589436 C64.0731562,16.1589436 64.4690646,15.4691427 64.8007247,14.8566134 C65.1797028,14.1563939 65.4158586,13.5542832 64.8549884,13.5542832 L58.3563608,13.5542832 C58.3750275,13.4865621 58.3923919,13.4214456 58.4114928,13.3532903 C58.6741294,12.4112715 58.8338819,11.766618 58.9628125,11.2491588 C59.2189375,10.2185815 59.4620391,9.37684211 60.0715296,7.59482031 C60.3042126,6.91413573 59.773296,6.47134346 59.0548439,6.43183945 C58.2825621,6.38973077 57.8193666,6.33373057 57.5675828,7.00746939 C56.8695338,8.87848376 56.6958898,9.57175753 56.4349897,10.6210016 C56.3038884,11.1493135 56.1554228,11.7475172 55.9027707,12.6535049 C55.8198557,12.9513044 55.7369407,13.2512744 55.6548939,13.5542832 L53.3510718,13.5542832 C52.6317514,13.5542832 51.8794387,14.6056978 51.5512514,15.2208318 C51.3771733,15.5477167 51.2052657,16.1589436 51.7140427,16.1589436 L54.5101456,16.1589436 C53.6262975,17.5233516 51.746601,20.0824304 49.7028108,22.2230271 C46.8563511,25.2053632 45.0417711,25.9715675 44.2981405,25.6924347 C43.2419507,25.2982628 43.4972074,23.0287354 43.5688356,22.2121743 C43.6695491,21.0639532 43.8918135,19.9161662 44.3220166,18.8430461 C44.7487468,17.7790424 45.5140828,16.8995354 45.9299602,15.8355316 C46.4053108,14.6195893 46.0150458,14.2206422 45.3117875,14.1168899 C44.5481879,14.0035872 43.9026662,14.0704401 43.5831612,14.7059772 C41.7099763,18.4384556 37.7547995,22.6037416 36.6382685,23.7406759 C35.906793,24.4851746 33.9294217,26.2980183 32.7568904,25.7575512 C31.1111791,24.9987268 31.990252,22.3085468 32.4287032,21.0722013 C33.1636515,19.000194 34.5337029,17.6653055 36.2197864,16.2605254 C37.2889994,15.3701656 35.7335831,14.0951844 34.755099,14.1073395 C33.5569552,14.1225333 32.5558974,15.2881188 31.335614,15.5108173 C30.0441366,15.7469732 29.8053761,15.5003987 29.193715,14.5279921 C28.7066435,13.754408 27.8440668,13.5234614 27.0839401,14.1689831 C26.0689908,15.0306916 27.8223613,16.3825103 26.874699,17.0523421 C26.3728678,17.4074442 25.5393765,17.8615233 24.9494209,18.0390743 C24.7284589,18.1054931 22.6568857,18.6016809 22.6568857,18.1853694 C22.6568857,15.2538241 19.9324109,11.4041361 16.3748789,11.7210365 C17.5248365,10.7555757 18.4386382,9.43761752 18.9369965,8.14744242 C20.1433884,5.02315229 18.1048075,1.72782281 15.1667506,0.528376704 C11.5523503,-0.947597509 7.48821185,0.960750327 4.31747195,2.67331452 C3.68497359,3.01495914 3.41018192,3.46860416 3.79133055,4.43840604 C4.05440125,5.10693554 4.15207601,5.65695299 5.55598796,4.96454744 C7.63059995,3.94135002 9.79333628,2.64857025 12.1410035,2.44410441 C14.683152,2.22270828 17.6021081,4.37459186 16.5072825,7.20846235 C15.4623796,9.91513859 13.140759,11.2040114 10.5621452,11.9988669 C9.92660807,12.1946505 9.24418705,12.6713034 9.48555225,13.4218797 C10.005182,15.0359009 12.3567562,14.0674013 13.4758919,13.9875251 C16.808989,13.7483304 19.8612169,14.9720867 19.8612169,18.7158519 C19.8612169,22.0628405 17.1753779,24.7399972 14.5442368,25.8695516 C11.8770646,27.014734 8.35078854,27.5378366 5.07108702,26.541554 C5.40448355,23.8565833 6.05087343,20.3580903 6.4680532,17.6436 C6.89131051,14.8909081 7.57763852,11.8712385 8.42545547,9.26527583 C8.69764248,8.42874574 10.040779,5.87444213 8.41677327,5.8388451 C7.69788701,5.82278303 6.98464417,6.45745194 6.71723238,7.08474098 C6.07518359,8.58980057 5.41924329,10.5450323 5.07542812,12.1442938 C4.19635524,16.2336106 3.04683179,21.2645121 2.59448911,25.4428214 C2.40304657,25.3277823 2.21203814,25.2131772 2.02493671,25.0846806 C1.42629893,24.6731443 0.627536414,24.9518429 0.226852826,25.5057674 C-0.585801211,26.6296783 0.9418321,27.5547669 2.32751142,28.1564434 C2.28106164,28.6526312 2.27454999,29.1718269 2.60186898,29.5638283 C2.91138945,29.9345582 3.35418172,29.8017206 3.68844647,29.5529755 C3.92243179,29.3793315 4.13905271,29.1401368 4.31313085,28.9070197 C6.20888949,29.5499367 8.18799727,29.5733787 10.1757872,29.5959524 C11.6600096,29.6128827 14.05977,29.1110515 15.4762711,28.5488789 C18.7156004,27.2626108 22.0408835,23.5279619 22.5292573,20.2721365 C22.5249162,20.301656 23.5845789,20.2443534 23.6327651,20.2361053 C24.9776381,20.0008177 25.9075018,19.7737781 27.1303899,19.1508302 C27.4620499,18.9815273 27.8353846,18.7002239 28.136657,18.4814325 C28.4136192,18.2800054 28.6805969,17.9913222 28.8963496,17.7217399 C28.9883809,17.6218945 30.8498449,17.8485 32.1248261,17.2424823 C30.1170671,19.6843514 28.9597297,22.8958977 29.5943986,25.4211159 C30.2160442,27.894241 32.191245,28.7837325 34.4889895,28.0726602 C36.2675385,27.5222086 37.8685364,26.2915066 39.0770988,24.8997497 C39.2503087,24.7004932 40.9064386,23.1389993 40.8869036,23.0474021 C41.2016334,24.5350973 41.0232142,26.1252424 42.1475593,27.3203475 C45.0942984,30.4515833 49.5426242,26.1625759 51.5868485,24.0215451 C52.5319061,23.0317741 53.434855,21.9695068 54.2357881,20.960635 C54.0690898,22.8728899 54.0217718,25.8231018 56.4671138,27.3837275 C60.1961192,29.7626507 64.4885995,27.3060218 67.7622235,25.310852 L67.807371,25.2830689 C67.9475885,25.2027586 68.0895425,25.12158 68.2210779,25.0464789 C69.6102301,27.1271685 72.0742388,28.3821807 74.851675,28.3821807 C75.1446992,28.3821807 75.4403282,28.3682891 75.73943,28.3396379 C78.311098,28.095668 80.9374639,26.6079728 83.1327585,24.2260109 C83.9653816,26.2906384 85.9110629,27.7466435 88.3142962,28.0275127 C91.610928,28.4143048 94.7017917,27.0407806 97.1575523,24.9175483 C97.1423585,24.9804942 97.1267305,25.0443084 97.1111025,25.1072544 C96.9860788,25.6203724 96.8601869,26.1365293 96.7247446,26.6544226 C96.7212717,26.6674459 96.7212717,26.66788 96.7212717,26.6687482 C96.4364955,28.0136212 97.2504519,28.123017 98.1612148,28.1521023 C98.6487204,28.1677303 99.1609703,27.8304268 99.3159475,27.0416488 L99.3550175,26.8918808 C99.3988626,26.7238802 99.7669879,25.3169295 100.439424,22.7478662 C100.826651,21.5380014 101.315893,20.3828345 102.047802,19.3036369 C102.740642,18.2826101 103.504241,17.5507005 104.317764,17.1283114 C104.857362,16.8478763 105.772032,16.3625412 106.416252,16.4927743 C107.522364,16.7167751 107.116471,18.3225482 106.933711,19.0605353 C106.463136,20.9597668 105.690854,22.9731693 105.920064,24.9570523 C106.110638,26.6066705 107.400379,28.1277922 109.121192,28.3161959 C110.927958,28.5141501 112.478599,27.3715724 113.826076,26.3249331 C114.087411,26.1217696 116.640412,24.3258562 116.580505,24.0632197 C116.955142,25.7028534 117.892385,26.9418035 119.316266,27.6190152 C122.346355,29.0606947 125.711576,27.2361301 127.842622,24.7239352 C127.235302,25.4402168 128.079646,26.6704847 128.606656,27.1892462 C129.397604,27.9680397 130.577515,28.0843812 131.674946,28.0843812 C134.16804,28.0843812 135.644014,25.9693969 136.736235,24.2151582 C137.067027,23.6838075 140.136619,17.6722513 140.130107,17.6696466 C141.347786,18.1254622 143.207514,18.0968109 144.640945,17.974826 C143.853904,19.5758239 143.543515,22.1270888 143.82395,24.3710037 C144.109594,26.6570273 146.118656,28.2923199 148.412059,28.1481953 C151.236813,27.9710784 153.588388,25.3156272 155.233665,23.2709688 C155.254502,23.6968308 155.291401,24.1153129 155.365634,24.5190352 C155.649108,26.0701105 156.653205,27.5612785 158.243784,28.0296833 C160.218116,28.6109567 162.442931,27.5569374 164.092115,26.5515385 C167.420002,24.5238104 168.756627,23.2501315 171.003581,20.4379665 C171.884824,21.5336603 173.646877,23.5370783 172.031554,24.7673462 C171.151613,25.437178 169.957376,25.539628 168.89424,25.5821708 C168.210951,25.6090856 167.383971,25.9637535 166.985024,26.494236 C166.552216,27.0689977 166.201455,27.7423024 167.123939,27.9593575 C167.49684,28.0470477 169.004504,28.0952339 169.412133,28.0952339 C170.968852,28.0952339 172.748269,27.6346431 173.89432,26.6062364 C175.039068,25.5786979 175.345984,24.3666626 175.178852,23.141604"></path>
        </g>
    </g>
</svg>