<?xml version="1.0" encoding="UTF-8"?>
<svg width="145px" height="26px" viewBox="0 0 145 26" version="1.1" xmlns="http://www.w3.org/2000/svg" xmlns:xlink="http://www.w3.org/1999/xlink">
    <!-- Generator: Sketch 42 (36781) - http://www.bohemiancoding.com/sketch -->
    <title>Artboard</title>
    <desc>Created with Sketch.</desc>
    <defs>
        <polygon id="path-1" points="0 25.1102843 0 0.133921516 144.86828 0.133921516 144.86828 25.1102843"></polygon>
    </defs>
    <g id="Page-1" stroke="none" stroke-width="1" fill="none" fill-rule="evenodd">
        <g id="Artboard">
            <g id="Page-1">
                <path d="M37.0665582,10.2161374 C37.2158651,10.2699971 37.3662488,10.2965631 37.5130433,10.2965631 C37.9150235,10.2965631 38.2943923,10.1000478 38.5793676,9.73030795 C38.8051225,9.43699072 38.8952092,9.07598489 38.8320408,8.71315948 C38.7354938,8.15527447 38.2972636,7.70037801 37.9193304,7.4605566 C37.5284765,7.21200118 37.0773255,7.14103733 36.6825235,7.26695267 C36.177177,7.42816797 35.8577463,7.86814383 35.8476968,8.41547524 C35.8344171,9.16223326 36.3810384,9.96976545 37.0665582,10.2161374" id="Fill-1" fill="#F6682F"></path>
                <g id="Group-5" transform="translate(0.000000, 0.229996)">
                    <mask id="mask-2" fill="white">
                        <use xlink:href="#path-1"></use>
                    </mask>
                    <g id="Clip-4"></g>
                    <path d="M58.3656943,15.3073749 C58.6915854,14.8182702 59.0734666,14.3560954 59.5357438,13.99327 C59.9506448,13.6668363 60.5712017,13.3647851 61.1601745,13.3367634 C61.5291349,13.3192954 61.8855334,13.409183 62.1712265,13.6679281 C62.418875,13.892101 62.567823,14.2290883 62.4163626,14.5533385 C62.2982809,14.8055331 62.1069814,15.025703 61.9210656,15.227677 C61.2193948,15.9893556 60.2575136,16.5072098 59.2389245,17.0556329 C59.0357809,17.1648081 58.834073,17.2736193 58.6341597,17.3842501 L58.3384171,17.5476489 C58.0749765,17.6935797 57.8301993,17.8293208 57.5951126,17.9596032 C57.5717834,17.0534494 57.8380953,16.0988947 58.3656943,15.3073749 M144.833429,19.5335449 C144.654692,18.2037916 143.819147,16.8554785 142.98109,15.8001187 C142.883825,15.6774786 142.787637,15.5566581 142.694321,15.4369294 C142.982167,15.0846576 143.272167,14.6850765 143.458442,14.1901492 C144.204259,12.2108037 142.055459,11.1725481 140.761944,12.7046393 C140.35458,13.1861017 139.858207,14.0474937 140.145694,15.1880101 C140.017563,15.3768831 139.895533,15.5657561 139.776375,15.7502621 C138.467427,17.771458 136.557303,19.2853534 134.546325,20.5281305 C133.159853,21.3847915 131.858083,21.7538035 131.229989,21.4684925 C130.906251,21.321106 130.684444,20.9266198 130.57067,20.2955874 C130.361066,19.1350556 130.509296,17.9363125 130.786016,16.8008909 C130.855286,16.5170355 131.627662,13.598056 131.844085,13.598056 L135.25338,13.598056 C135.848095,13.598056 136.175422,13.0197916 136.449989,12.5063045 C136.763318,11.9193061 136.958207,11.414553 136.494853,11.414553 L132.522068,11.414553 C132.961734,9.9752606 133.19359,9.25397678 133.733392,7.70769275 C133.810558,7.49079812 133.900286,7.23423652 134.0076,6.92672651 C134.20536,6.35901574 133.91213,5.73598955 133.352588,5.53474336 C132.79161,5.3320415 132.177873,5.62936183 131.9776,6.19743652 C131.569877,7.35505702 131.118726,8.49557341 130.68911,9.64482381 C130.470175,10.2307304 130.273132,10.8220958 130.084345,11.414553 L126.983714,11.414553 C126.38864,11.414553 125.767006,12.2959604 125.49567,12.8119949 C125.351387,13.0856606 125.209618,13.598056 125.630261,13.598056 L129.437588,13.598056 C129.341041,13.9495999 129.245929,14.30078 129.153689,14.6508683 C128.755657,15.5919581 128.268974,16.5199469 127.649135,17.3507698 C127.642675,17.3595038 127.639085,17.3689656 127.632984,17.3776996 C125.975175,19.6590963 123.880571,21.7403386 122.561214,21.7530757 C121.839803,21.7599901 121.118751,20.9717455 121.04984,20.3206977 C120.807934,18.0229248 121.129877,15.7604518 122.725595,14.2472842 C123.161313,13.8342382 123.154494,13.3232985 122.748207,12.8825948 C122.342278,12.4422551 121.918405,12.3145201 121.423467,12.6500518 C120.280694,13.4255592 117.925162,13.7556321 116.489519,13.246512 C116.81541,11.7224269 115.04562,10.7205629 114.154085,11.9917256 C113.927254,12.314884 113.833219,12.7228352 113.881672,13.1173214 C113.95812,13.7319775 114.359382,13.7552682 114.0701,14.3830253 C113.588801,15.4274675 113.064432,16.4540779 112.571647,17.4937892 C112.05338,18.5866324 111.33484,19.8574312 110.502526,20.7530313 C109.984976,21.3094607 109.129333,22.0624053 108.311375,21.7290572 C107.376771,21.3480359 107.482291,19.8708961 107.686511,19.0753732 C108.146994,17.2805337 108.748887,15.4696819 109.079803,13.646093 C109.183887,13.0729235 108.749605,12.7421228 108.189704,12.6096569 C107.628368,12.4757354 107.360261,12.7312053 107.202699,13.2920016 C106.815075,14.6748869 106.342031,15.9576949 105.722192,17.226674 C105.272476,18.1473844 104.143343,19.5783067 102.850546,20.5670697 C101.611226,21.5154378 100.507934,21.7665406 99.5729715,21.3156473 C98.6096547,20.850925 98.3946671,19.7730024 98.3842587,18.9505496 C98.3745681,18.1786813 98.6624146,17.2899956 99.1957562,16.4497109 C99.8967092,15.3452223 101.358912,13.9270371 102.593207,13.8604402 C103.164593,13.8324186 103.671375,14.1188214 104.062229,14.6112013 C104.434778,15.0806545 105.208231,15.245509 105.542736,14.7476703 C105.842786,14.3011439 105.959073,13.7563599 105.586165,13.2869068 C104.759234,12.2450119 103.743875,11.8490701 102.479073,11.9167587 C100.368318,12.0299369 98.3591349,13.7334331 97.3846918,15.2680718 C97.1280705,15.6720199 96.9076993,16.0981669 96.7264493,16.5421458 C96.6047785,16.8398301 96.566375,17.2550595 96.3707686,17.5072541 C96.010422,17.9727042 95.2890111,18.3893893 94.8306819,18.7784168 C93.8831572,19.5834016 91.6668824,22.3127803 90.2359047,21.6158789 C88.9323403,20.9808435 90.0758304,18.1917823 90.3338874,17.2172122 C90.7523775,15.6352642 91.1112884,13.8688103 89.8705334,12.5554333 C88.8806572,11.5080797 87.2415111,11.5084436 85.2542215,12.5554333 C85.0539493,12.6606053 84.8579839,12.7796063 84.6656077,12.9113443 C84.8845433,12.0641451 85.103479,11.216582 85.3220557,10.3693829 C85.9659418,7.87436681 86.5463007,5.28473227 87.2214121,2.77042859 C87.3768205,2.18852504 86.9149022,1.84717074 86.319828,1.85299342 C85.4387017,1.86209134 85.0395928,2.2704064 84.8612141,3.16855396 C84.6774517,4.09435923 84.4879468,4.99578204 84.2474765,5.90957804 C83.5709295,8.47883322 82.9209418,11.0557307 82.2544443,13.6282611 C82.0154097,14.5544303 81.776375,15.4809634 81.5369814,16.4074965 C79.6907438,19.0389815 76.8334542,21.8815384 73.2662389,21.4612141 C71.8998651,21.299271 70.8776869,20.4356956 70.5984542,19.208203 C70.1526869,17.2496008 71.1892215,14.9267175 72.9496795,13.9969092 C73.9729344,13.4564922 75.2650136,13.52782 75.9325879,14.4972953 C76.2731943,14.9925865 76.979172,15.3754274 77.4662141,15.03007 C77.953974,14.6850765 78.0731324,14.0045514 77.7328849,13.5103519 C76.5341225,11.7686444 74.1663874,11.1274223 72.242625,11.9229453 C70.1203849,12.8007135 68.7001745,15.0897524 68.4029963,17.3354852 C68.2888626,18.1986967 66.63213,19.5386397 66.0241349,20.0488516 C63.9001002,21.8313179 60.1943453,22.6923459 58.2913998,20.0623165 C58.6276993,19.8752631 58.9787141,19.6809314 59.3702859,19.4644006 L59.6660285,19.3006379 C59.8584047,19.1943741 60.0532933,19.089566 60.2485408,18.9843939 C61.9408057,18.0724175 64.8253725,16.4475274 64.6286894,14.1344699 C64.5676745,13.4124582 64.1875879,12.7781506 63.49812,12.2486511 C62.8542339,11.7548155 62.0337636,11.5055323 61.1171052,11.5088075 C59.3132191,11.5273673 57.6597166,12.4662736 56.5811894,14.085341 C55.5819814,15.5850437 55.2205582,17.4344707 55.5640359,19.1033948 C55.3321795,19.2365885 55.0877611,19.3777884 54.8246795,19.5306336 C54.8067339,19.5411872 54.7923775,19.5553799 54.7751498,19.5666614 C52.675521,20.8629343 49.8577116,22.5526017 47.8442215,21.2490504 C46.8109171,20.5808985 46.8683428,19.0680949 47.0276993,17.4442965 C47.14937,16.2047946 47.3769196,14.9838525 47.685224,13.6799373 L52.3790606,13.6799373 C52.9741349,13.6799373 53.3011027,13.1020369 53.5756696,12.5881858 C53.8889988,12.0015514 54.0838874,11.4964343 53.6205334,11.4964343 L48.2476374,11.4964343 C48.2630705,11.4396633 48.277427,11.3854396 48.2932191,11.3279407 C48.5103601,10.5386044 48.6424394,9.99818738 48.7490359,9.56439812 C48.9607933,8.70045877 49.1617834,7.99482339 49.6656943,6.50057952 C49.8580705,5.93032132 49.4191225,5.55912581 48.825125,5.52600935 C48.1862636,5.49034547 47.8033057,5.44376407 47.5954963,6.00819959 C47.0183676,7.57704649 46.8744443,8.15785828 46.6590978,9.03744607 C46.5507067,9.48033325 46.4276002,9.98181111 46.2187141,10.7416701 C46.1501621,10.9909534 46.0819691,11.2427841 46.0141349,11.4964343 L44.1093948,11.4964343 C43.5143205,11.4964343 42.8926869,12.3782056 42.6213502,12.8938763 C42.4770681,13.1679059 42.3352983,13.6799373 42.7559418,13.6799373 L45.0676869,13.6799373 C44.3369443,14.8240929 42.7828601,16.9693846 41.0931077,18.7638601 C38.73937,21.2636071 37.2394814,21.9062848 36.6246671,21.6719222 C35.751078,21.3418493 35.9624765,19.4392904 36.0216968,18.7547622 C36.1049641,17.7922013 36.2887265,16.8296404 36.6444072,15.9304011 C36.9972166,15.0384401 37.6299765,14.3011439 37.9738131,13.409183 C38.3668205,12.3894871 38.0441597,12.0554111 37.462724,11.968071 C36.8313998,11.8734525 36.2976993,11.9294958 36.0331819,12.4622705 C34.4848403,15.5912303 31.2148032,19.0830155 30.2916844,20.0361145 C29.6865606,20.6598685 28.0517215,22.1799505 27.0823032,21.7268737 C25.721672,21.0903825 26.4488255,18.8351879 26.8113255,17.7991157 C27.4189616,16.0621391 28.4633923,14.8262764 29.9456943,13.7654579 C31.0166844,12.9986844 29.9094443,11.1790986 28.73437,11.9604287 C27.9063626,12.5110354 26.9164864,12.9502834 25.907229,13.1369729 C24.8394691,13.3345799 24.8046547,12.9637483 24.2985903,12.1485739 C24.0739121,11.7864763 23.7620186,11.5422879 23.3280953,11.5219085 C22.817724,11.4982539 22.3245804,11.735164 22.0195062,12.1507574 C21.8116968,12.4342489 21.6986399,12.7887042 21.7205334,13.1427956 C21.7521176,13.6435456 22.511573,14.2007028 21.9954592,14.5708065 C21.5801993,14.8684908 21.1150507,15.1075844 20.6276498,15.2564265 C20.4449641,15.3121058 18.7519814,15.6199797 18.7322413,15.271711 C18.5807809,12.587458 16.4797166,9.69395263 13.5384418,9.95997608 C14.4891968,9.1506243 15.2447042,8.04540788 15.6567339,6.96420998 C16.6541473,4.34509815 14.9683428,1.58260296 12.5395928,0.576735921 C9.55094183,-0.660582436 6.19117698,0.939197417 3.56969183,2.37521455 C3.04675866,2.66161735 2.85187005,3.32394659 3.13469183,3.85453782 C3.41679579,4.38476512 4.06929579,4.58200823 4.5936646,4.29596934 C6.2776745,3.37635066 8.0966349,2.35410735 10.0379839,2.18270237 C12.1397661,1.99746853 14.5530829,3.80104199 13.6479097,6.17705716 C12.7840111,8.44608067 10.8645557,9.52655073 8.732625,10.1925191 C8.20717946,10.3570097 7.64261262,10.7565907 7.84252599,11.3858035 C8.27214233,12.7388475 10.2163626,11.9269483 11.141276,11.8596237 C13.8969938,11.6594692 16.4208552,12.6853517 16.4208552,15.8237733 C16.4208552,18.6295747 14.1999146,20.8734879 12.0249146,21.8204004 C9.81976609,22.7807778 6.90397401,23.218934 4.19276114,22.3841081 C4.4684047,20.1332804 5.00246411,17.200472 5.34773639,14.9248979 C5.6976745,12.6172992 6.26511262,10.0858914 6.96606559,7.90129668 C7.19110272,7.19966439 8.30121411,5.05873971 6.95888738,5.0288985 C6.36453094,5.01543357 5.77484035,5.54711655 5.55339233,6.07334077 C5.02292203,7.33504157 4.48060767,8.97412448 4.19635025,10.3147953 C3.46955569,13.742895 2.51915965,17.960331 2.1451745,21.4626698 C1.9868948,21.3665957 1.82897401,21.2705215 1.67428342,21.162802 C1.1793453,20.8178086 0.518949257,21.0514434 0.187674505,21.5158017 C-0.484565594,22.4576193 0.778800743,23.2334907 1.92444431,23.737516 C1.88604084,24.1538372 1.88065718,24.5887182 2.15127599,24.9176993 C2.40717946,25.2281207 2.77290965,25.117126 3.04962995,24.9086014 C3.24308292,24.7630346 3.42217946,24.5625162 3.56574381,24.3667288 C5.13310767,24.906054 6.76974134,24.9253416 8.41319431,24.9446292 C9.63995173,24.958822 11.6240111,24.5381337 12.7951374,24.0664971 C15.4736894,22.9885745 17.9702735,20.1995133 18.6091349,17.2896317 C18.5578106,17.5225387 21.0569072,17.1524349 21.2916349,17.0632752 C22.1881943,16.7219209 22.9573403,16.1079926 23.6012265,15.399082 C23.6773156,15.3153811 25.1976621,15.4362016 25.4575136,15.4150944 C24.6589369,17.3383966 23.9432686,19.3275678 24.4679963,21.4448379 C24.9815978,23.51771 26.7266225,24.150198 28.6263379,23.5541017 C30.0967958,23.0930187 31.3088379,22.1744918 32.3080458,21.0077733 C32.4512512,20.8407354 33.8204963,19.5317253 33.8043453,19.4549388 C34.0645557,20.7020829 33.9170433,22.0351115 34.8466225,23.0369754 C37.2825507,25.6619099 40.9606696,22.0660445 42.6507809,20.2715689 C43.43213,19.4418378 44.1786646,18.5513325 44.8404963,17.705589 C44.7026745,19.3086441 44.6639121,21.7818251 46.6852983,23.0901073 C49.7687017,25.0840095 53.3176126,23.0246023 56.0241597,21.352039 L56.0614864,21.3291122 C56.1770557,21.2617875 56.2944196,21.193735 56.4035285,21.1307773 C57.5516844,22.8750323 59.5892215,23.9271168 61.8855334,23.9271168 C62.1274394,23.9271168 62.3722166,23.9151076 62.6195062,23.8914529 C64.7456943,23.6869315 66.9171052,22.4397874 68.7321176,20.44261 C69.4201498,22.1734 71.0291473,23.3939782 73.0157191,23.6297965 C75.7416473,23.9540467 78.2970928,22.8022489 80.3274517,21.0226939 C80.3148899,21.0754619 80.3016101,21.1285938 80.2890483,21.1817257 C80.1856819,21.6115119 80.0815978,22.0445733 79.9692587,22.4787265 C79.9667463,22.4892801 79.9667463,22.489644 79.9667463,22.4903719 C79.7844196,23.2294876 80.3920557,23.9817044 81.2498527,23.8284953 C81.6471671,23.7575314 81.9518824,23.4278225 82.0527364,23.0318806 L82.0556077,23.0205992 C82.0918577,22.8797632 82.4848651,21.3574977 83.0408181,19.203836 C83.3609666,18.1895988 83.7654592,17.2212152 84.3705829,16.3161533 C84.9434047,15.460584 85.574729,14.8466558 86.2469691,14.4925644 C86.6934542,14.2574739 87.4496795,13.8509784 87.9823032,13.9601535 C88.8968082,14.1475709 88.5612265,15.4937005 88.4097661,16.1127236 C88.0207067,17.7044972 87.3825631,19.392345 87.5720681,21.0558104 C87.72963,22.4383317 88.7955953,23.7138614 90.218677,23.8718014 C91.7124641,24.0377476 92.9944938,23.0795538 94.1081943,22.2025134 C94.3242587,22.0322002 96.4353725,20.5266748 96.3858428,20.306505 C96.6955829,21.6810201 97.4701126,22.7192758 98.6473403,23.2873505 C101.152897,24.4959194 103.826783,22.9529106 105.697068,20.8603869 C105.357897,21.2428638 106.255175,22.511843 106.493491,22.7698602 C108.789444,25.2521392 111.86567,22.59518 113.181437,20.4527997 C113.454927,20.0073651 115.861425,14.9489165 115.856041,14.946733 C116.862427,15.328846 118.40036,15.3048275 119.585125,15.2025667 C118.934778,16.5443293 118.678157,18.6834344 118.909655,20.5645222 C119.145818,22.48091 120.807217,23.8514221 122.703343,23.7309655 C125.038417,23.5824873 126.982637,21.356406 128.343269,19.6423561 C128.360137,19.9993589 128.391004,20.350175 128.452019,20.688618 C128.686746,21.988894 129.516907,23.2389495 130.831957,23.6316161 C132.464283,24.1189012 134.303702,23.2349464 135.667204,22.3924781 C138.418256,20.6926211 139.523702,19.6248881 141.381425,17.2670688 C142.110014,18.1859596 143.566833,19.8654374 142.230967,20.8967786 C141.503813,21.4583028 140.516449,21.5441872 139.637476,21.5794872 C139.072551,21.602414 138.388825,21.8997343 138.058986,22.3444411 C137.701152,22.8262674 137.411152,23.3907029 138.173838,23.5726615 C138.482142,23.6461728 139.728281,23.6862037 140.065657,23.6862037 C141.352712,23.6862037 142.823887,23.3004515 143.771053,22.4383317 C144.71786,21.5765759 144.97161,20.5608831 144.833429,19.5335449" id="Fill-3" fill="#F6682F" mask="url(#mask-2)"></path>
                </g>
            </g>
        </g>
    </g>
</svg>