<svg width="122px" height="32px" viewBox="0 0 122 32" version="1.1" xmlns="http://www.w3.org/2000/svg" xmlns:xlink="http://www.w3.org/1999/xlink">
    <g id="Page-1" stroke="none" stroke-width="1" fill="none" fill-rule="evenodd">
        <g id="britecharts-logo-sm" transform="translate(1.000000, 1.000000)" fill="#F6682F">
                        <path d="M36.1236144,12.7374804 C36.2527711,12.8047498 36.3884338,12.8377818 36.5226506,12.8377818 C36.7380723,12.8377818 36.9493976,12.7524292 37.1214458,12.586305 C37.5016868,12.219337 37.6286747,11.5377215 37.4043374,11.0663532 C37.2214457,10.6825075 36.8438554,10.4872091 36.393735,10.5414587 L36.393494,10.5414587 C36.1325301,10.5737673 35.906265,10.7087885 35.7568675,10.9224111 C35.526747,11.2505606 35.5212048,11.7007113 35.5927711,12.0127065 C35.666747,12.3353105 35.8602409,12.599566 36.1236144,12.7374804" id="Fill-1"></path>
                        <path d="M113.376964,21.1356721 C112.832626,21.5209644 112.168048,21.6651477 111.555518,21.528921 C111.117446,21.4324774 110.84106,21.1947438 110.756241,20.8420012 C110.647566,20.3906449 110.877927,19.845015 111.316,19.51566 C112.124916,18.9075829 113.120338,18.5415793 114.049494,18.2751537 C114.230698,18.6879325 114.334313,19.1118023 114.312144,19.5441109 C114.281301,20.1480892 113.931662,20.7429054 113.376964,21.1356721 M112.314554,13.5301266 C112.366362,13.3437492 112.480819,13.1503798 112.671662,12.9413382 C112.699615,12.9107173 112.726843,12.883472 112.752867,12.8591199 C112.655518,13.0925136 112.498169,13.3116817 112.314554,13.5301266 M49.4880482,18.8622544 C49.3504578,17.9896805 49.5774458,16.974129 50.1162409,16.1760579 C50.4316627,15.7087884 51.1278072,14.923255 52.2468434,14.9116817 C52.2538313,14.9116817 52.2608193,14.9114406 52.2678072,14.9114406 C52.622506,14.9114406 52.9403373,15.0049909 53.1646747,15.1749729 C53.3535904,15.3179506 53.4531084,15.4785292 53.469253,15.6665943 C53.4947952,15.9646052 53.3188915,16.3474865 52.9988916,16.6901025 C52.4661205,17.2608077 51.7574458,17.6374202 51.0073253,18.0359735 C50.8625061,18.1126462 50.7181687,18.1893188 50.5757591,18.2671971 L50.3451567,18.3930561 C50.0321446,18.5642435 49.7552771,18.7151778 49.4880482,18.8622544 M26.2709398,14.6551416 C26.2574458,14.6233152 26.2528675,14.5885956 26.2608193,14.5553225 C26.2682891,14.523255 26.2851567,14.4989029 26.3196144,14.4955274 C26.4355181,14.4846775 26.5887711,14.6211453 26.6437108,14.7139723 C26.6851566,14.7843761 26.6482892,14.8210247 26.5743132,14.8190958 C26.4875663,14.8169259 26.3853976,14.786305 26.3213012,14.7269922 C26.2998554,14.7069801 26.282265,14.6821459 26.2709398,14.6551416 M18.5111807,24.3725618 C15.2610602,27.5113201 9.95069878,29.199566 5.88612048,28.3899216 C5.04346988,28.2216275 4.26539759,27.9103556 3.58997591,27.4816637 C3.70756627,24.6746715 3.97648192,21.7365159 4.39310844,18.7166245 C4.40780723,18.6095721 4.42298795,18.5022785 4.43792771,18.3949849 C5.56178313,18.0796142 6.77744578,18.1594214 7.6834699,18.6961302 C8.74563858,19.3259072 8.94563856,20.5902833 8.31310846,22.675877 C8.23045785,22.9480892 8.38419273,23.2359734 8.65624094,23.3186739 C8.92828914,23.4008921 9.216,23.2475467 9.29840962,22.9753345 C9.58612048,22.0277758 10.4608192,19.1443521 8.20828914,17.8093309 C7.17238554,17.1952261 5.85768674,17.0399518 4.59792771,17.2940808 C5.10539759,13.9337432 5.82057832,10.4593611 7.22563855,7.25839663 C8.29720481,4.81692586 9.6355181,3.05080169 11.2034698,2.00824593 C12.3526265,1.24417119 14.1675662,0.749415311 15.2155181,1.24417119 C15.7453976,1.49444244 16.0403373,1.97834841 16.1174458,2.72433996 C16.2485301,3.99715491 15.7046747,5.31144063 15.1550361,6.42898132 C14.4140723,7.93639542 13.2986506,9.37340567 11.8716627,10.6717782 C11.2025061,11.2805787 10.3851567,11.8059554 9.66877109,12.3817239 C9.41142167,12.5885955 9.18130124,12.8624954 9.40226506,13.1945027 C9.56009635,13.4317541 9.87961443,13.4954069 10.1164819,13.3374804 C10.7919036,12.8878119 11.4540723,12.4113804 12.0653976,11.8768415 C12.5338313,11.4671971 13.0367229,11.1511031 13.6343133,10.9632791 C17.3319036,9.80089208 20.8453976,13.0216275 21.4176867,16.5394093 C22.0017832,20.1297649 20.1596145,22.7807595 18.5111807,24.3725618 M2.59551807,26.6925136 C2.23865061,26.3402531 1.93286747,25.9450754 1.68780723,25.5137312 C0.951180722,24.2175286 0.842024096,22.7404943 1.37214458,21.241519 C1.61262651,20.560868 1.99575904,19.9552019 2.47985542,19.4898614 C2.73575904,19.2441712 3.02443373,19.0317541 3.33479518,18.8545389 C2.97118072,21.5429054 2.72395181,24.167378 2.59551807,26.6925136 M119.495277,13.8927547 C119.333349,13.6728632 119.013109,13.6178903 118.779132,13.769789 C118.544916,13.9214467 118.486362,14.2225919 118.648048,14.4422423 C118.921543,14.8137914 118.880096,15.0426039 118.824916,15.1824472 C118.437446,16.1688246 115.669494,16.8579144 114.627325,17.1175889 C114.612627,17.1212055 114.598169,17.1250633 114.583711,17.1284388 C114.205638,16.5232549 113.741301,15.9682218 113.322747,15.4674382 L113.226843,15.3531525 C113.171422,15.2868475 113.112867,15.2188547 113.052867,15.1489331 C112.902747,14.974129 112.767325,14.8113804 112.653109,14.655865 C112.687325,14.618252 112.722024,14.5801567 112.756964,14.5415793 C113.124434,14.1386859 113.504433,13.7218083 113.720096,13.1911272 C114.090458,12.2809404 113.667807,11.92434 113.469012,11.8134298 C113.02347,11.5643641 112.389012,11.7649669 111.889735,12.3120434 C111.121783,13.1530319 111.144434,13.9187945 111.42347,14.558698 C111.226362,14.8176492 111.040819,15.0833514 110.860819,15.340856 C110.718892,15.5441109 110.580578,15.7410971 110.439614,15.9325377 C110.363711,15.9732851 110.295759,16.0316335 110.246603,16.109994 C109.110217,17.9127668 107.523229,19.4674382 105.656723,20.6054732 C104.559132,21.2750332 103.579855,21.5286799 103.038169,21.2866064 C102.719614,21.1436287 102.516482,20.8101748 102.417446,20.2671971 C102.283229,19.533261 102.341061,18.7002291 102.594554,17.7206028 C102.686603,17.3647258 102.779373,17.0057143 102.874795,16.6457384 C103.151181,15.9894394 103.369494,15.3336226 103.557927,14.7214467 C103.583229,14.6397106 103.609253,14.5567691 103.634795,14.4747921 L107.335036,14.4747921 C107.619374,14.4747921 107.849976,14.2440507 107.849976,13.9595419 C107.849976,13.6750331 107.619374,13.4442917 107.335036,13.4442917 L103.961783,13.4442917 C104.313349,12.3578541 104.710217,11.190645 105.192386,9.82837853 C105.262747,9.63163352 105.335759,9.4264497 105.411904,9.21065704 C105.506361,8.94230256 105.366362,8.64863172 105.098651,8.55339365 C104.831422,8.45887884 104.536723,8.59823992 104.441301,8.86562992 C104.366603,9.07515372 104.293831,9.28033754 104.222506,9.48142253 C103.833832,10.5659313 103.521302,11.3898011 103.167807,12.3212055 L102.996482,12.7723207 C102.912144,12.9951055 102.834313,13.2195781 102.756482,13.4442917 L100.211181,13.4442917 C99.9268435,13.4442917 99.6962408,13.6750331 99.6962408,13.9595419 C99.6962408,14.2440507 99.9268435,14.4747921 100.211181,14.4747921 L102.418892,14.4747921 C102.231422,15.0862448 102.060578,15.6998674 101.898409,16.3091501 C101.716964,16.7339844 101.50612,17.1537553 101.265639,17.5585775 C101.208771,17.5826884 101.154795,17.6164436 101.107085,17.6632188 C100.822024,17.9436287 100.516723,18.2831103 100.193591,18.6421217 C99.1690124,19.7818445 97.8935901,21.1998071 96.7039519,21.2909464 C95.9825058,21.3468837 95.585157,20.7163833 95.521301,20.1080651 C95.3605785,18.5777456 95.4829876,16.439349 96.9793732,14.9418204 C97.1870841,14.7342254 97.1979273,14.3855817 97.0039519,14.163038 C96.8097349,13.9412176 96.4839516,13.9296444 96.2747954,14.1379626 C95.3694942,15.0423629 94.0294937,15.2567089 93.0131081,14.6616516 C93.1106985,14.5063773 93.195518,14.3291622 93.2408195,14.1218083 C93.3369638,13.6781676 93.131422,13.2195781 92.7290119,12.9803978 C92.330217,12.7433876 91.8608195,12.7998071 91.5608195,13.1207233 C91.3357587,13.3615913 91.2364823,13.6796143 91.28106,14.0164436 C91.3176866,14.2951658 91.4482891,14.5579747 91.6140722,14.788475 C91.4709395,15.0257263 91.3381686,15.2675588 91.2085299,15.5072212 C90.5453977,16.7327788 90.150458,18.083472 89.4417828,19.2911875 C88.8381684,20.3202411 85.8266028,22.8675588 86.316,20.0152381 L87.1610605,15.0821458 C87.2106987,14.7911272 87.0396144,14.5095118 86.7716628,14.4420012 C86.5041927,14.3737673 86.2343134,14.545437 86.1591327,14.8301869 C85.8779278,15.8951657 85.5868435,16.9967932 85.1321446,17.9855817 C84.4253977,19.5212055 82.2680484,22.1374804 80.4834699,21.2231947 C79.6728676,20.8080048 79.4923853,19.8804581 79.4839519,19.1749729 C79.476,18.5336227 79.6974456,17.802821 80.106843,17.1173478 C80.6374458,16.2303074 81.7432291,15.2562267 82.7470846,15.1990838 C83.2441929,15.1706329 83.6429878,15.3731645 83.975277,15.8172875 C84.1531086,16.0559856 84.4779273,16.0933574 84.6991322,15.9014346 C84.9205785,15.7095118 84.955759,15.3606269 84.7772051,15.1221699 C84.2381689,14.4010126 83.5184096,14.0453768 82.6926266,14.0919108 C81.3321448,14.1695479 79.9263615,15.3709946 79.2410605,16.5177095 C78.9694937,16.971959 78.6617833,17.6181314 78.5253972,18.3689452 C78.4169635,18.3812417 78.310699,18.4268114 78.2244334,18.499144 L76.5656385,19.8891381 C76.4343129,19.9860639 76.2894942,20.1008318 76.1340722,20.2240386 C75.0653976,21.0725015 74.1302168,21.7222906 73.5058795,21.086727 C73.3755181,20.9541169 73.2940723,20.7537553 73.2637108,20.4919108 C73.1882891,19.8387463 73.3829879,19.1281977 73.5714217,18.4412779 C73.622506,18.2546594 73.6728674,18.0697287 73.7232289,17.8684027 C73.9417831,16.9900422 74.2721446,15.6624955 73.4475662,14.8010127 C72.6068433,13.9216877 71.2025061,14.45478 70.4405783,14.8511633 C70.0935904,15.0312718 69.7634698,15.2714165 69.4519036,15.5684629 C69.5046747,15.5684629 69.7704578,14.3513442 69.8005783,14.2358529 C69.9319036,13.7338637 70.0632289,13.2321157 70.1945542,12.7303677 C70.4167229,11.8811815 70.6415422,11.0329596 70.8646747,10.1840145 C71.1651567,9.04019286 71.4326265,7.88383367 71.7875663,6.75520193 C71.8721446,6.48660639 71.9405783,6.17991561 71.6832289,5.98124171 C71.4931085,5.83440627 71.1588916,5.76255576 70.9617832,5.93470766 C70.8853976,6.00149487 70.8372048,6.09600965 70.809253,6.19365883 C70.7176868,6.51578059 70.6743132,6.86056661 70.5885302,7.18775166 C70.4535904,7.70131405 70.3119036,8.21318863 70.1774458,8.72675104 C69.729494,10.4391079 69.2815422,12.1514648 68.8335904,13.8635805 C68.696,14.3894394 68.5584096,14.9150572 68.4208192,15.4409162 C68.4082892,15.4592405 68.3947952,15.4770826 68.3844337,15.4975769 C67.4034699,17.4291019 64.709253,21.875877 60.9196145,21.4199397 C59.8449156,21.2916696 59.0068434,20.5738879 58.7849157,19.5916094 C58.4374457,18.0545389 59.1735904,16.0354912 60.6029879,15.2757565 C61.4509397,14.8256058 62.5468434,15.1031224 63.0981687,15.9086679 C63.2608192,16.1466425 63.5815422,16.2054731 63.8150361,16.0386257 C64.0482892,15.8727426 64.1053976,15.5450753 63.942747,15.3073418 C63.0870843,14.0567089 61.4466024,13.6422423 60.1270843,14.3438698 C58.8747952,15.0095721 57.9704578,16.5037252 57.7364819,18.0542978 C56.4875663,19.977384 54.796,21.2130681 53.1899759,21.3654491 C51.9786506,21.4816637 50.5391326,21.045015 49.8386506,19.8454973 C50.1506988,19.6735865 50.469253,19.4995057 50.8386506,19.2979385 C51.8516626,18.7445932 52.9509397,18.2510428 53.7514217,17.3936588 C54.2750361,16.8330802 54.5461205,16.1712357 54.4952771,15.5785895 C54.4540723,15.0968535 54.2090121,14.6732248 53.7866024,14.3535142 C53.2615422,13.9552019 52.6487711,13.8855214 52.236241,13.8811814 C51.0755181,13.8932369 49.9916626,14.5196383 49.262747,15.5990838 C48.4976868,16.7325377 48.2340723,18.1729234 48.5453976,19.3869077 C48.5800964,19.5392888 46.4490121,20.5960699 46.2964819,20.6722604 C45.1740723,21.2345269 43.7350362,21.7369982 42.5728675,20.9946232 C41.7090121,20.4429656 41.7473253,19.2909463 41.8697349,18.0581555 C41.9803373,16.9451959 42.2114217,15.8549005 42.5268434,14.6454973 L46.5266024,14.6454973 C46.8109397,14.6454973 47.0415422,14.414997 47.0415422,14.1302471 C47.0415422,13.8457384 46.8109397,13.614997 46.5266024,13.614997 L42.8056385,13.614997 C43.2302168,12.0960096 43.6535904,10.5367571 44.2511807,9.07539478 C44.3726265,8.77858952 44.4316627,8.41499696 44.1037108,8.22500301 C43.8413012,8.07310428 43.4803373,8.1878722 43.3728674,8.47527425 C42.8299759,9.92916213 42.3133494,11.5426643 41.7938313,13.4076431 C41.7740723,13.478047 41.756,13.5455575 41.7369639,13.614997 L40.0273253,13.614997 C39.6444337,13.614997 39.0600964,13.5870283 39.0617831,14.130006 C39.062747,14.4051115 39.2991325,14.6454973 39.5747952,14.6454973 L41.462506,14.6454973 C41.1952771,15.6974563 40.9947952,16.671537 40.8786506,17.6641833 C40.8772048,17.6663532 40.8752771,17.6682821 40.8738313,17.6704521 C40.1728675,18.8135503 38.3099759,21.8498373 36.5147952,21.1795539 C35.5547952,20.8212658 35.4540723,18.4875709 35.6208193,17.0061965 C35.7070843,16.2375407 36.0343132,15.5204822 36.2133494,14.7725618 C36.2796144,14.4960096 36.109012,14.2177697 35.8323855,14.1514647 C35.5550361,14.0858831 35.2779277,14.255865 35.2116627,14.5326583 C35.2111808,14.5350693 35.2104578,14.5374804 35.2099759,14.5398915 C35.1634699,14.7330199 35.1078072,14.921085 35.0480482,15.1130079 C34.2294939,17.6475467 32.1639518,20.0284991 32.0545543,20.1533936 C31.256,20.9630379 30.036,21.6914286 29.3699759,21.5084268 C29.262747,21.4792526 28.936,21.3905244 28.7526265,20.6618927 C28.4955181,19.6381435 28.8557591,18.4309102 29.0933494,17.8023387 C29.6321446,16.3769017 30.6581687,15.25695 31.8403373,14.8053526 C32.1058795,14.7040868 32.2393735,14.4063171 32.1381687,14.1403737 C32.0367229,13.8744304 31.7396145,13.741097 31.4735904,13.8423629 C31.0716627,13.9954672 30.6752771,14.1842556 30.2919036,14.3665341 C29.4919036,14.7474864 28.6417831,15.2080048 27.7287711,15.1764195 C27.7521446,15.1771429 27.7053976,14.6481495 27.696241,14.5999277 C27.6198554,14.1975166 27.3984096,13.7994454 27.0603374,13.5602652 C26.4996144,13.1633996 25.8200964,13.2627366 25.3290121,13.8122242 C24.869253,14.3269922 24.9805783,14.7872695 25.0878072,15.0155998 C25.2723855,15.4081254 25.7068434,15.6837131 26.182506,15.8700904 C25.8015422,16.3250633 25.3304578,16.7351899 24.8911808,17.0944424 C24.289253,17.5860639 23.6774458,17.8291018 23.2126265,17.7649669 C22.9511807,17.7280772 22.7299759,17.5860639 22.535759,17.3447136 C22.5179277,17.0218686 22.4870844,16.6983002 22.4343132,16.3737674 C22.0658795,14.1087884 20.7167229,12.0234358 18.8256386,10.7954671 C17.3803373,9.85707053 15.7246747,9.52024109 14.1215422,9.82934301 C14.9196144,8.8921519 15.5779277,7.90408678 16.0793735,6.88371308 C16.6933494,5.63476793 17.2998554,4.15122363 17.1417832,2.61873418 C16.9979277,1.22464135 16.2538313,0.594864376 15.6550362,0.3120434 C14.2106988,-0.368848704 12.0355181,0.217287523 10.6333494,1.14965642 C8.89840967,2.30336347 7.43479518,4.2192164 6.28274698,6.84417118 C4.76274699,10.306739 4.03021687,14.0436889 3.50780723,17.6241592 C2.86612048,17.8874503 2.26877108,18.2640627 1.76660241,18.746522 C1.16708433,19.3227728 0.695036145,20.0665944 0.401060241,20.8976974 C-0.222554217,22.6614105 -0.0835180724,24.4817842 0.792385542,26.0234358 C1.22828916,26.7901628 1.82419277,27.4599638 2.53937349,28.0043882 C2.5186506,28.6008921 2.5046747,29.1913683 2.49744578,29.7753346 C2.49407229,30.0598433 2.72202409,30.293478 3.01262651,30.2968535 C3.29407229,30.2968535 3.52419277,30.0702109 3.52756627,29.7878722 C3.53190362,29.4105365 3.53937349,29.0305486 3.54973494,28.6479084 C4.20274699,28.9924533 4.9213012,29.248029 5.6846747,29.4001688 C10.055759,30.2729837 15.7514217,28.4699698 19.2263614,25.1139723 C21.1880482,23.2198192 22.3140723,20.9714768 22.5179277,18.6204219 C22.6921446,18.7011935 22.875759,18.7580952 23.0687711,18.7853405 C24.0950361,18.9290416 25.0586506,18.2881736 25.5425061,17.8925136 C26.1352771,17.4081254 26.782988,16.8345268 27.2622651,16.1560458 C27.7856386,16.2385051 28.3157591,16.1917299 28.8266024,16.0593611 C28.5523855,16.479132 28.3176867,16.9413381 28.1299759,17.4375407 C27.849735,18.1789511 27.4280482,19.6164437 27.7540723,20.9128873 C28.0268433,21.9988427 28.6364819,22.3769017 29.1000964,22.5030018 C29.822506,22.6995057 30.5919036,22.4186136 31.2213012,22.0706932 C31.7984096,21.7517058 32.3350362,21.3391682 32.7969639,20.868041 C32.8000964,20.8646654 32.8022651,20.8608077 32.8053976,20.8574322 C32.8082891,20.8545389 32.8116627,20.8523689 32.8143132,20.8492345 C32.8747952,20.7812417 33.6906988,19.8553827 34.5297349,18.5234961 C34.5673253,19.9040868 34.8776868,21.6685232 36.1550361,22.1451959 C36.4663615,22.2614105 36.7704578,22.3139723 37.0668434,22.3139723 C38.5834699,22.3137311 39.8837108,20.9355516 40.7991325,19.665871 C40.8813012,20.4914286 41.1798554,21.3275949 42.0188916,21.8630983 C42.6208192,22.2476673 43.2550362,22.4014949 43.8943132,22.4014949 C45.5415422,22.4014949 47.2200964,21.3777456 48.4463614,20.6295841 C48.4463614,20.6295841 48.4721446,20.613912 48.4723855,20.613912 C48.6280482,20.5249427 48.7841928,20.437179 48.9413012,20.3506208 C48.8653976,20.3923328 49.8326265,21.3854611 49.9282892,21.4614105 C51.8632289,22.996311 54.5266024,22.4890175 56.3615422,21.0838337 C56.5735903,20.921085 57.8200964,20.0060759 57.7656386,19.7384449 C57.7716627,19.7681013 57.7747952,19.7982399 57.7813012,19.8276552 C58.1022651,21.2482701 59.2873253,22.2828692 60.7998554,22.4634599 C61.0251567,22.4904641 61.2461205,22.5032429 61.4637109,22.5032429 C64.0663615,22.5030018 66.1268433,20.6565883 67.5422651,18.7988427 C67.5263614,18.8596022 67.5104578,18.9201206 67.4945542,18.9808801 C67.3039518,19.5838939 67.156,20.1912478 67.0099759,20.7904038 C66.935759,21.0946836 66.8613012,21.4011332 66.7808193,21.7090296 C66.6897349,22.0571911 66.9699759,22.4133092 67.3788916,22.3527908 C67.5666024,22.3250633 67.7176868,22.18305 67.7682892,22.0000483 C67.7694939,21.9957083 67.7716627,21.9879927 67.7755181,21.9735262 C67.7906988,21.91783 67.8051567,21.8618927 67.8196145,21.8057143 C67.8921446,21.5296444 68.0661205,20.8651476 68.4875663,19.2545389 C68.7232289,18.5157806 69.022506,17.8078843 69.4750362,17.1404943 C69.909735,16.498903 70.3943133,16.0364557 70.9152771,15.7654491 C71.5408192,15.4406751 72.3834699,15.1802773 72.7039518,15.51349 C73.1355181,15.9650874 72.8878072,16.9606269 72.7191325,17.6381435 C72.675759,17.8129476 72.6268434,17.9901627 72.5781687,18.1683424 C72.3637108,18.9505003 72.1422651,19.758698 72.2408193,20.6105364 C72.2981687,21.1055335 72.476241,21.508909 72.7709398,21.8090898 C73.1803373,22.2257263 73.6232289,22.3867872 74.069253,22.3865461 C75.0675662,22.3865461 76.0820241,21.5812417 76.7743132,21.0312718 C76.9229878,20.9133695 77.0613015,20.8036649 77.1858797,20.7120434 C77.1938316,20.7057746 77.2063618,20.6958891 77.2143129,20.6896202 L78.4808195,19.6284991 C78.5979273,20.8487522 79.1408195,21.763038 80.0408195,22.2240386 C82.1046744,23.2820253 84.2121448,21.3572514 85.3104577,19.7717179 L85.3029881,19.813912 C85.2208192,20.2944425 85.0492527,21.2938397 85.6699762,21.9371187 C86.1227468,22.4072815 86.8403377,22.4957686 87.5890124,22.1736468 C88.9025058,21.6080048 89.7945539,20.4477878 90.4863615,19.2386256 C90.6478071,18.9565281 92.4099759,15.5593008 92.3866025,15.5429054 C92.4333494,15.5754551 92.4743134,15.6019771 92.5078071,15.621748 C93.2810605,16.0786498 94.1641929,16.2069198 95.0097349,16.0299457 C94.506843,17.219578 94.330699,18.6385051 94.4979273,20.2315129 C94.6321443,21.5108379 95.5111808,22.3961905 96.6169641,22.3961905 C96.6699759,22.3961905 96.7234701,22.3942616 96.7772051,22.3901628 C98.3615423,22.2688849 99.7890122,20.6819048 100.936,19.4061965 C101.024916,19.3073417 101.111904,19.2108981 101.197687,19.1161423 C101.241783,19.1156601 101.285398,19.1110789 101.327807,19.0995057 C101.300578,19.5766606 101.32612,20.0258469 101.404192,20.45261 C101.566843,21.3418204 101.975036,21.9388065 102.617205,22.2266908 C102.899373,22.3535142 103.20347,22.4060759 103.514313,22.4060759 C104.505156,22.4060759 105.562747,21.8696082 106.192868,21.4855214 C108.091181,20.3281977 109.715759,18.7638819 110.920097,16.9533936 C111.210699,16.5996866 111.47094,16.2300663 111.722265,15.8708137 C111.815518,15.7372393 111.910457,15.6012538 112.007084,15.4664738 C112.091663,15.5699096 112.174795,15.6668354 112.251422,15.7562869 C112.308289,15.8223508 112.363952,15.8864858 112.416241,15.9491742 L112.512386,16.0646654 C112.86853,16.490223 113.243711,16.938927 113.559374,17.4059554 C112.586844,17.6962508 111.553831,18.0984207 110.672386,18.7607474 C109.926362,19.3218084 109.556241,20.2438095 109.751663,21.0549005 C109.924434,21.7724412 110.496,22.2881736 111.319615,22.470211 C111.549494,22.5208438 111.782747,22.5456782 112.016723,22.5456782 C112.711181,22.5456782 113.406121,22.3255455 113.996964,21.9074623 C114.804916,21.3355515 115.295036,20.4911875 115.34106,19.5904038 C115.369253,19.038264 115.25094,18.5119228 115.04588,18.0133092 C117.236723,17.4602049 119.299855,16.7684629 119.791422,15.5171067 C119.934313,15.153273 119.998892,14.5765401 119.495277,13.8927547" stroke="#F6682F" stroke-width="0.8"></path>
        </g>
    </g>
</svg>
